<svg width="25" height="24" viewBox="0 0 25 24" fill="none" xmlns="http://www.w3.org/2000/svg">
<path d="M15.5 12.375L11.3 17.625L9.5 15.5212" stroke="#EC7220" stroke-linecap="round" stroke-linejoin="round"/>
<path d="M8 8.25V6.75C8 5.55653 8.47411 4.41193 9.31802 3.56802C10.1619 2.72411 11.3065 2.25 12.5 2.25C13.6935 2.25 14.8381 2.72411 15.682 3.56802C16.5259 4.41193 17 5.55653 17 6.75V8.25M4.25 8.25C4.05109 8.25 3.86032 8.32902 3.71967 8.46967C3.57902 8.61032 3.5 8.80109 3.5 9V19.125C3.5 20.5425 4.7075 21.75 6.125 21.75H18.875C20.2925 21.75 21.5 20.6011 21.5 19.1836V9C21.5 8.80109 21.421 8.61032 21.2803 8.46967C21.1397 8.32902 20.9489 8.25 20.75 8.25H4.25Z" stroke="#EC7220" stroke-linecap="round" stroke-linejoin="round"/>
</svg>
