<svg width="655" height="366" viewBox="0 0 655 366" fill="none" xmlns="http://www.w3.org/2000/svg">
<path d="M654.5 133.5C524.613 183.359 355.556 192.635 323.648 123.402C299.838 71.7432 444.738 162.856 295.835 180.426C146.834 198.007 99.1343 238.188 38.5523 333.108" stroke="#7D6E69" stroke-linecap="round" stroke-dasharray="8 8"/>
<path d="M489.008 142.214C488.781 142.233 488.022 142.307 487.809 142.339L483.49 142.832C483.468 142.836 483.445 142.833 483.424 142.824C483.403 142.815 483.385 142.8 483.372 142.781L473.798 132.912C473.739 132.846 473.668 132.794 473.587 132.759C473.507 132.724 473.42 132.708 473.333 132.71L471.539 132.867L477.359 143.301C477.373 143.325 477.38 143.352 477.38 143.379C477.381 143.407 477.374 143.434 477.361 143.458C477.347 143.482 477.328 143.502 477.305 143.517C477.282 143.531 477.255 143.539 477.228 143.54L469.121 144.371C469.036 144.381 468.951 144.371 468.871 144.342C468.792 144.312 468.72 144.264 468.662 144.201L465.928 141.382C465.705 141.136 465.318 141.027 464.992 141.056L463.733 141.166C463.647 141.173 463.667 141.254 463.698 141.334L465.443 146.036C465.565 146.285 465.59 146.572 465.513 146.838L464.608 151.757C464.58 151.892 464.591 151.962 464.744 151.949L465.939 151.844C466.482 151.797 466.55 151.719 466.797 151.341L469.042 148.038C469.089 147.967 469.151 147.907 469.224 147.864C469.297 147.821 469.38 147.796 469.464 147.791L477.53 147.269C477.56 147.267 477.589 147.272 477.616 147.284C477.643 147.296 477.667 147.315 477.685 147.339C477.703 147.362 477.715 147.39 477.72 147.419C477.725 147.448 477.724 147.478 477.715 147.507L473.805 158.768L475.582 158.613C475.668 158.6 475.751 158.569 475.824 158.521C475.897 158.473 475.958 158.409 476.005 158.335L483.738 146.957C483.76 146.914 483.866 146.884 483.912 146.88L488.185 146.622C488.406 146.616 489.16 146.557 489.387 146.537C492.34 146.279 494.136 145.294 494.019 143.95C493.901 142.606 491.97 141.954 489.008 142.214Z" stroke="#7D6E69" stroke-linecap="round" stroke-linejoin="round"/>
</svg>
