<svg width="24" height="24" viewBox="0 0 24 24" fill="none" xmlns="http://www.w3.org/2000/svg">
<path d="M22.866 9.46344L17.3655 4.12997C17.2793 4.04635 17.164 4 17.0412 4H6.95788C6.83509 4 6.72073 4.04635 6.63354 4.12997L1.13404 9.46344C1.0478 9.54706 1 9.6634 1 9.78246C1.00281 9.90153 1.05249 10.0151 1.14154 10.0988L11.6832 19.8759C11.8603 20.0414 12.1387 20.0414 12.3168 19.8759L22.8585 10.0988C22.9475 10.0151 22.9972 9.90063 23 9.78246C23 9.6634 22.9522 9.54706 22.866 9.46344ZM16.4105 4.88897L15.1216 8.75353L12.796 4.88897H16.4105ZM14.412 9.33267H9.59113L12.0001 5.32617L14.412 9.33267ZM11.2035 4.88897L8.87786 8.75353L7.58899 4.88897H11.2035ZM6.75475 5.27252L8.11017 9.33253H2.56651L6.75475 5.27252ZM2.60049 10.2216H8.40547L11.0067 18.0163L2.60049 10.2216ZM12.0004 18.1117L9.3682 10.2216H14.6333L12.0004 18.1117ZM12.994 18.0163L15.5952 10.2216H21.4002L12.994 18.0163ZM15.8923 9.33273L17.2477 5.27271L21.4348 9.33273H15.8923Z" fill="#EC7220"/>
</svg>
