<svg width="24" height="24" viewBox="0 0 24 24" fill="none" xmlns="http://www.w3.org/2000/svg">
<path d="M20.4872 3.51283C20.1588 3.18447 19.7134 3 19.2491 3C18.7847 3 18.3393 3.18447 18.0109 3.51283L8.88139 13.6803C9.87949 13.8835 10.8759 14.8604 11.0117 15.8105L20.4872 5.98906C20.8155 5.66069 21 5.21532 21 4.75094C21 4.28656 20.8155 3.8412 20.4872 3.51283ZM6.89209 15.4646C5.59992 15.4646 4.55684 16.5241 4.55684 17.837C4.55684 18.8728 3.65387 19.4185 3 19.4185C3.71615 20.3833 4.93826 21 6.11367 21C7.83398 21 9.22735 19.5846 9.22735 17.837C9.22735 16.5241 8.18427 15.4646 6.89209 15.4646Z" stroke="#EC7220" stroke-linecap="round" stroke-linejoin="round"/>
</svg>
