<svg width="25" height="24" viewBox="0 0 25 24" fill="none" xmlns="http://www.w3.org/2000/svg">
<path d="M16.25 9.75V5.29688C16.25 4.30231 15.8549 3.34849 15.1517 2.64522C14.4484 1.94196 13.4946 1.54688 12.5 1.54688C11.5054 1.54688 10.5516 1.94196 9.84835 2.64522C9.14509 3.34849 8.75 4.30231 8.75 5.29688V9.75" stroke="#EC7220" stroke-linecap="round" stroke-linejoin="round"/>
<path d="M17.75 9.75H7.25C6.00736 9.75 5 10.7574 5 12V20.25C5 21.4926 6.00736 22.5 7.25 22.5H17.75C18.9926 22.5 20 21.4926 20 20.25V12C20 10.7574 18.9926 9.75 17.75 9.75Z" stroke="#EC7220" stroke-linecap="round" stroke-linejoin="round"/>
</svg>
