<svg width="24" height="24" viewBox="0 0 24 24" fill="none" xmlns="http://www.w3.org/2000/svg">
<path d="M3 6L4.721 16.329C4.79888 16.796 5.0399 17.2202 5.40118 17.5262C5.76245 17.8322 6.22056 18.0001 6.694 18H12M20.162 11.028L21 6" stroke="#EC7220" stroke-linecap="round" stroke-linejoin="round"/>
<path d="M3.48633 8.96519C3.65433 8.98586 3.82566 8.99752 4.00033 9.00019C4.79033 9.00919 5.53933 8.82219 6.00033 8.50019C6.46133 8.18019 7.21033 7.99319 8.00033 8.00019C8.79033 7.99319 9.53933 8.18019 10.0003 8.50019C10.4613 8.82219 11.2103 9.00919 12.0003 9.00019C12.7903 9.00919 13.5393 8.82219 14.0003 8.50019C14.4613 8.18019 15.2103 7.99319 16.0003 8.00019C16.7903 7.99319 17.5393 8.18019 18.0003 8.50019C18.4613 8.82219 19.2103 9.00919 20.0003 9.00019C20.171 8.99886 20.3387 8.98752 20.5033 8.96619M16.0003 22.0002C16.0003 22.0002 16.0003 20.0002 19.0003 18.0002" stroke="#EC7220" stroke-linecap="round" stroke-linejoin="round"/>
<path d="M19 21C18.2044 21 17.4413 20.6839 16.8787 20.1213C16.3161 19.5587 16 18.7956 16 18C16 17.2044 16.3161 16.4413 16.8787 15.8787C17.4413 15.3161 18.2044 15 19 15H22V18C22 18.7956 21.6839 19.5587 21.1213 20.1213C20.5587 20.6839 19.7956 21 19 21Z" stroke="#EC7220" stroke-linecap="round" stroke-linejoin="round"/>
</svg>
