<svg width="32" height="33" viewBox="0 0 32 33" fill="none" xmlns="http://www.w3.org/2000/svg">
<path d="M16.0013 29.8337C23.365 29.8337 29.3346 23.8641 29.3346 16.5003C29.3346 9.13653 23.365 3.16699 16.0013 3.16699C8.6375 3.16699 2.66797 9.13653 2.66797 16.5003C2.66797 18.3389 3.04006 20.0905 3.71306 21.6839C4.08501 22.5645 4.27098 23.0049 4.29401 23.3377C4.31704 23.6705 4.21909 24.0365 4.0232 24.7686L2.66797 29.8337L7.733 28.4785C8.46514 28.2826 8.83122 28.1846 9.16399 28.2077C9.49678 28.2306 9.9371 28.4166 10.8178 28.7886C12.4112 29.4615 14.1628 29.8337 16.0013 29.8337Z" stroke="#EC7220" stroke-linejoin="round"/>
<path d="M11.4496 17.0027L12.6108 15.5605C13.1002 14.9526 13.7052 14.3867 13.7527 13.5774C13.7646 13.3729 13.6208 12.4551 13.3331 10.6195C13.22 9.89809 12.5465 9.83301 11.9631 9.83301C11.2029 9.83301 10.8228 9.83301 10.4453 10.0054C9.96822 10.2233 9.47842 10.8361 9.37092 11.3494C9.28588 11.7556 9.34908 12.0355 9.47548 12.5953C10.0123 14.9727 11.2718 17.3207 13.2247 19.2737C15.1776 21.2266 17.5256 22.4861 19.9031 23.0229C20.4628 23.1493 20.7427 23.2125 21.149 23.1274C21.6623 23.0199 22.275 22.5302 22.493 22.053C22.6654 21.6755 22.6654 21.2955 22.6654 20.5353C22.6654 19.9518 22.6003 19.2783 21.8788 19.1653C20.0432 18.8775 19.1255 18.7338 18.921 18.7457C18.1116 18.7931 17.5458 19.3981 16.9379 19.8875L15.4956 21.0487" stroke="#EC7220"/>
</svg>
