<svg width="24" height="24" viewBox="0 0 24 24" fill="none" xmlns="http://www.w3.org/2000/svg">
<path d="M21 12C21 7.03125 16.9688 3 12 3C7.03125 3 3 7.03125 3 12C3 16.9688 7.03125 21 12 21C16.9688 21 21 16.9688 21 12Z" stroke="#EC7220" stroke-miterlimit="10"/>
<path d="M11.7307 7.78322L11.9998 13.4996L12.2684 7.78322C12.2701 7.74667 12.2642 7.71017 12.2513 7.67595C12.2384 7.64173 12.2186 7.6105 12.1932 7.58418C12.1678 7.55785 12.1373 7.53699 12.1036 7.52285C12.0698 7.50872 12.0336 7.50161 11.997 7.50197C11.9609 7.50231 11.9251 7.50993 11.892 7.52437C11.8589 7.53882 11.829 7.55979 11.8041 7.58604C11.7793 7.61229 11.76 7.64328 11.7474 7.67716C11.7348 7.71104 11.7291 7.74711 11.7307 7.78322Z" stroke="#EC7220" stroke-linecap="round" stroke-linejoin="round"/>
<path d="M12 17.2461C11.8146 17.2461 11.6333 17.1911 11.4792 17.0881C11.325 16.9851 11.2048 16.8387 11.1339 16.6674C11.0629 16.4961 11.0443 16.3076 11.0805 16.1257C11.1167 15.9438 11.206 15.7768 11.3371 15.6457C11.4682 15.5146 11.6352 15.4253 11.8171 15.3891C11.999 15.3529 12.1875 15.3715 12.3588 15.4425C12.5301 15.5134 12.6765 15.6336 12.7795 15.7877C12.8825 15.9419 12.9375 16.1232 12.9375 16.3086C12.9375 16.5572 12.8387 16.7957 12.6629 16.9715C12.4871 17.1473 12.2486 17.2461 12 17.2461Z" fill="#EC7220"/>
</svg>
