<svg width="24" height="24" viewBox="0 0 24 24" fill="none" xmlns="http://www.w3.org/2000/svg">
<path d="M19.6457 15.8179C19.6284 15.7968 19.6066 15.7797 19.5819 15.768C19.5571 15.7562 19.5301 15.7502 19.5027 15.7502C19.4754 15.7502 19.4484 15.7562 19.4236 15.768C19.3989 15.7797 19.3771 15.7968 19.3598 15.8179C18.8676 16.3992 17.2504 18 17.2504 19.4582C17.2504 20.7239 18.2582 21.75 19.5004 21.75C20.7426 21.75 21.7504 20.7187 21.7504 19.4582C21.7504 18 20.1426 16.3992 19.6457 15.8179ZM18.141 13.4953L7.29462 2.73559C7.13784 2.57827 6.95156 2.45344 6.74644 2.36827C6.54132 2.2831 6.32141 2.23926 6.09931 2.23926C5.87721 2.23926 5.65729 2.2831 5.45218 2.36827C5.24706 2.45344 5.06077 2.57827 4.90399 2.73559L4.66259 2.97699C4.50527 3.13377 4.38044 3.32006 4.29527 3.52518C4.2101 3.73029 4.16626 3.95021 4.16626 4.17231C4.16626 4.39441 4.2101 4.61432 4.29527 4.81944C4.38044 5.02456 4.50527 5.21085 4.66259 5.36762L7.14181 7.84684L9.81368 5.17496L2.64087 12.3375C2.51706 12.4606 2.41906 12.6072 2.35262 12.7687C2.28618 12.9302 2.25263 13.1033 2.25394 13.2779C2.25525 13.4525 2.29139 13.6251 2.36025 13.7856C2.4291 13.9461 2.52929 14.0912 2.65493 14.2125L8.80493 20.1187C9.05051 20.3538 9.37761 20.4847 9.71759 20.4838C10.0576 20.4829 10.384 20.3504 10.6284 20.114C12.4002 18.3984 16.1737 14.7468 16.5674 14.3531C16.8393 14.0812 17.4206 14.0203 17.9127 14.0203H17.9268C17.9877 14.0203 18.0472 14.0022 18.0977 13.9683C18.1482 13.9344 18.1875 13.8862 18.2105 13.8298C18.2335 13.7735 18.2392 13.7115 18.2268 13.652C18.2144 13.5924 18.1846 13.5378 18.141 13.4953Z" stroke="#EC7220" stroke-miterlimit="10"/>
</svg>
