<svg width="24" height="24" viewBox="0 0 24 24" fill="none" xmlns="http://www.w3.org/2000/svg">
<path d="M4.875 9.75C6.32475 9.75 7.5 8.57475 7.5 7.125C7.5 5.67525 6.32475 4.5 4.875 4.5C3.42525 4.5 2.25 5.67525 2.25 7.125C2.25 8.57475 3.42525 9.75 4.875 9.75Z" stroke="#EC7220" stroke-linecap="round" stroke-linejoin="round"/>
<path d="M4.875 19.5C6.32475 19.5 7.5 18.3247 7.5 16.875C7.5 15.4253 6.32475 14.25 4.875 14.25C3.42525 14.25 2.25 15.4253 2.25 16.875C2.25 18.3247 3.42525 19.5 4.875 19.5Z" stroke="#EC7220" stroke-linecap="round" stroke-linejoin="round"/>
<path d="M7.35938 8.20312L6.84375 8.90625L8.57812 9.60938C8.57812 9.60938 8.74031 9.30844 8.90625 9.14062L7.35938 8.20312Z" stroke="#EC7220" stroke-miterlimit="10" stroke-linecap="square"/>
<path d="M7.22734 15.6766L21.5631 7.59391C21.4459 7.27985 20.2506 7.03141 18.5631 7.40641C17.1981 7.70969 12.8837 8.76813 11.1025 10.0338C9.64984 11.0655 10.6412 12.7502 9.00062 13.9689C7.80016 14.8595 6.91797 15.0386 6.91797 15.0386L7.22734 15.6766ZM16.1477 13.0427L13.8287 14.3753C14.4958 14.6913 16.9009 15.9348 19.3131 16.0783C20.0125 16.12 20.7194 16.0966 21.1412 15.797L16.1477 13.0427Z" stroke="#EC7220" stroke-miterlimit="10" stroke-linecap="round"/>
<path d="M12 12.75C12.8284 12.75 13.5 12.0784 13.5 11.25C13.5 10.4216 12.8284 9.75 12 9.75C11.1716 9.75 10.5 10.4216 10.5 11.25C10.5 12.0784 11.1716 12.75 12 12.75Z" stroke="#EC7220" stroke-miterlimit="10"/>
</svg>
