<svg width="24" height="24" viewBox="0 0 24 24" fill="none" xmlns="http://www.w3.org/2000/svg">
<path d="M21.75 12C21.75 6.61547 17.3845 2.25 12 2.25C6.61547 2.25 2.25 6.61547 2.25 12C2.25 17.3845 6.61547 21.75 12 21.75C17.3845 21.75 21.75 17.3845 21.75 12Z" stroke="#EC7220" stroke-width="0.7" stroke-miterlimit="10"/>
<path d="M20.887 8.06877C20.1342 8.07345 20.2083 9.46236 19.2703 8.80705C18.922 8.56423 18.7078 8.21127 18.2705 8.10392C17.8885 8.01017 17.497 8.10767 17.1197 8.17283C16.6908 8.24689 16.1822 8.28017 15.8569 8.60502C15.5424 8.91767 15.376 9.3372 15.0413 9.65173C14.3939 10.2611 14.1206 10.9263 14.5397 11.7878C14.9428 12.6161 15.7861 13.0656 16.696 13.0066C17.5899 12.947 18.5185 12.4286 18.4927 13.7275C18.4833 14.1869 18.5794 14.5056 18.7205 14.9327C18.8513 15.3264 18.8424 15.708 18.8724 16.1144C18.9277 16.8738 19.0674 17.725 19.4442 18.3958L20.1474 17.4039C20.2341 17.2811 20.4155 17.1091 20.4586 16.9642C20.535 16.7078 20.3845 16.2672 20.3672 15.9799C20.3499 15.6925 20.3583 15.4014 20.3142 15.1141C20.2524 14.7114 20.0142 14.3341 19.9814 13.9361C19.921 13.195 20.0564 12.6035 19.4855 11.9838C18.9342 11.3861 18.1261 11.2427 17.3541 11.3641C16.965 11.425 15.3989 11.6753 16.0275 10.7861C16.1517 10.6113 16.3688 10.4678 16.5085 10.3014C16.6299 10.1566 16.7353 9.89033 16.8778 9.77736C17.0203 9.66439 17.6747 9.53455 17.8622 9.5922C18.0497 9.64986 18.2452 9.92033 18.4078 10.0403C18.7084 10.2667 19.0591 10.4172 19.4302 10.4791C20.0705 10.5728 21.4092 10.2006 21.3989 9.37939C21.397 8.98564 21.0314 8.4372 20.887 8.06877ZM13.4752 14.8263C13.2253 13.7744 11.7961 13.4228 11.0255 12.8524C10.5825 12.5242 10.1883 12.0175 9.60658 11.9763C9.33845 11.957 9.11392 12.0152 8.84814 11.9463C8.60439 11.8835 8.41314 11.7522 8.15345 11.7864C7.6683 11.8502 7.3622 12.3686 6.84095 12.2983C6.34642 12.2317 5.83689 11.6533 5.72439 11.1822C5.58001 10.5766 6.05908 10.3802 6.57236 10.3263C6.78658 10.3038 7.02705 10.2794 7.23283 10.3577C7.50376 10.4585 7.63173 10.7238 7.87501 10.8578C8.33111 11.1077 8.42345 10.7083 8.35361 10.3033C8.24908 9.69673 8.1272 9.44923 8.66814 9.03205C9.04314 8.74423 9.36377 8.53611 9.30377 8.01908C9.26814 7.71533 9.10173 7.57798 9.25689 7.27564C9.37455 7.04548 9.69752 6.83783 9.90798 6.70048C10.4513 6.34611 12.2353 6.37236 11.5064 5.38048C11.2922 5.08939 10.897 4.56908 10.522 4.49783C10.0533 4.40923 9.84517 4.93236 9.51845 5.16298C9.18095 5.40158 8.52377 5.67252 8.1858 5.30361C7.73111 4.8072 8.4872 4.64408 8.65455 4.29767C8.82189 3.95127 8.26689 3.29642 7.9697 3.13048L6.57236 4.69752C6.53222 4.95995 6.54619 5.22782 6.61342 5.48465C6.68065 5.74149 6.79972 5.98185 6.9633 6.19095C7.24126 6.54861 7.68377 6.66345 7.70392 7.15189C7.72361 7.62064 7.65048 7.86064 7.34392 8.19017C7.21126 8.3308 7.11751 8.53049 6.98251 8.6622C6.81705 8.82299 6.87845 8.77377 6.62017 8.81783C6.13455 8.89986 5.72111 9.02642 5.25189 9.1558C4.47001 9.37189 4.39783 8.09455 4.04158 7.59345L2.8697 8.53986C2.85705 8.69502 3.06189 8.98048 3.11767 9.14923C3.43783 10.1135 4.08376 10.8592 4.50095 11.7817C4.94017 12.7586 6.11955 12.4877 6.64033 13.3436C7.10251 14.103 6.60892 15.0644 6.95486 15.8594C7.20611 16.4364 7.79861 16.5625 8.20736 16.9844C8.62502 17.4105 8.61611 17.9936 8.67986 18.5481C8.75175 19.2004 8.86843 19.8469 9.02908 20.4831C9.0858 20.703 9.13783 20.9936 9.2883 21.175C9.39142 21.2997 9.74533 21.407 9.60236 21.4483C9.80205 21.4811 10.1578 21.6677 10.3242 21.5308C10.5436 21.3508 10.485 20.7967 10.523 20.5464C10.6369 19.8011 11.01 19.0722 11.5135 18.5144C12.0108 17.9641 12.6924 17.5914 13.1124 16.9675C13.5216 16.3591 13.6449 15.5383 13.4752 14.8263ZM11.91 16.06C11.6288 16.562 11.0025 16.8981 10.5999 17.297C10.4906 17.4053 10.2581 17.7803 10.1213 17.6992C10.0233 17.6411 9.99002 17.1545 9.95392 17.043C9.76772 16.4812 9.41224 15.9908 8.93626 15.6391C8.78955 15.528 8.4258 15.3836 8.34189 15.2313C8.24814 15.0658 8.33251 14.6753 8.3358 14.4953C8.34095 14.2328 8.22142 13.7964 8.28611 13.5578C8.36111 13.2827 8.21673 13.4486 8.46283 13.3942C8.59267 13.3652 9.12892 13.4594 9.29064 13.4931C9.54751 13.5466 9.68908 13.7064 9.89158 13.8681C10.4241 14.2952 11.0105 14.6256 11.6072 14.9528C12.0694 15.2088 12.2053 15.5327 11.91 16.06ZM8.64752 3.14455C8.8697 3.36158 9.07876 3.61845 9.41017 3.64002C9.72376 3.66111 10.0195 3.49142 10.2933 3.7047C10.597 3.93908 10.816 4.2358 11.2191 4.30892C11.6091 4.3797 12.022 4.15189 12.1186 3.75298C12.2124 3.37283 12.0103 2.95939 11.9981 2.57783C11.9981 2.52486 12.0267 2.28955 11.9902 2.2497C11.963 2.2197 11.7361 2.25345 11.7014 2.25439C11.4474 2.26189 11.1939 2.27939 10.9411 2.30689C10.0195 2.40665 9.11686 2.6379 8.2608 2.99361C8.3747 3.07236 8.51767 3.10377 8.64752 3.14455ZM16.7072 5.77798C17.1052 5.77798 17.5092 5.59986 17.3808 5.13955C17.273 4.75377 17.0892 4.33517 16.642 4.5433C16.3575 4.67548 15.9544 5.01205 15.9211 5.3458C15.8831 5.72455 16.4419 5.77798 16.7072 5.77798ZM16.3894 7.7922C16.7958 8.03549 17.3986 7.92111 17.7052 7.57377C17.9447 7.30189 18.0858 6.82986 18.5166 6.83033C18.7062 6.82993 18.8884 6.90419 19.0238 7.03705C19.2019 7.22127 19.1667 7.39423 19.2047 7.62486C19.2895 8.14283 19.845 7.65439 19.9899 7.45377C20.0836 7.32299 20.2106 7.12892 20.168 6.95877C20.1286 6.79986 19.943 6.63064 19.8605 6.48486C19.6195 6.06298 19.4213 5.5722 19.0603 5.23142C18.713 4.9033 18.286 4.94127 17.9564 5.28205C17.6864 5.5633 17.3728 5.78595 17.1881 6.12814C17.0578 6.36861 16.9111 6.48345 16.6472 6.5458C16.5019 6.58002 16.336 6.59267 16.2141 6.69017C15.8747 6.95736 16.0678 7.59908 16.3894 7.7922Z" stroke="#EC7220" stroke-width="0.7"/>
</svg>
