<svg width="24" height="24" viewBox="0 0 24 24" fill="none" xmlns="http://www.w3.org/2000/svg">
<path d="M1.09961 19.6162L4.14861 22.0562C5.11484 22.8291 6.3153 23.2502 7.55261 23.2502H13.8166C14.0552 23.2502 14.2915 23.2032 14.5119 23.1119C14.7324 23.0206 14.9327 22.8867 15.1014 22.718C15.2701 22.5493 15.404 22.349 15.4953 22.1285C15.5866 21.9081 15.6336 21.6718 15.6336 21.4332C15.6328 20.9516 15.4411 20.4899 15.1005 20.1493C14.76 19.8087 14.2983 19.617 13.8166 19.6162H9.12361" stroke="#EC7220" stroke-linecap="round" stroke-linejoin="round"/>
<path d="M1.26367 14.166H4.89967C5.97667 14.166 7.02967 14.485 7.92467 15.083L9.99967 16.466C10.1961 16.5844 10.3665 16.7414 10.5006 16.9274C10.6348 17.1135 10.7299 17.3247 10.7802 17.5485C10.8306 17.7722 10.8351 18.0039 10.7936 18.2294C10.7521 18.455 10.6654 18.6698 10.5387 18.861C10.3088 19.2043 9.96166 19.4522 9.56228 19.5582C9.16291 19.6642 8.73859 19.6211 8.36867 19.437L5.64067 17.8M22.8997 18.119C22.8999 17.8672 22.8506 17.6178 22.7544 17.385C22.6583 17.1523 22.5172 16.9407 22.3393 16.7625C22.1613 16.5843 21.95 16.4429 21.7174 16.3464C21.4848 16.2499 21.2355 16.2001 20.9837 16.2C20.9357 16.2 20.8907 16.21 20.8437 16.214C21.0745 15.3552 20.9982 14.4427 20.6278 13.6342C20.2575 12.8256 19.6164 12.1719 18.8152 11.7858C18.0141 11.3997 17.1033 11.3055 16.2401 11.5195C15.3769 11.7336 14.6156 12.2423 14.0877 12.958C13.5595 12.5516 12.9056 12.3432 12.2397 12.369C11.5737 12.3947 10.9379 12.653 10.4427 13.099M21.8627 5.941C21.8237 6.60295 21.5332 7.22498 21.0508 7.67986C20.5683 8.13474 19.9303 8.3881 19.2672 8.3881C18.6041 8.3881 17.966 8.13474 17.4836 7.67986C17.0011 7.22498 16.7107 6.60295 16.6717 5.941C16.6717 3.994 19.2667 0.75 19.2667 0.75C19.2667 0.75 21.8627 3.994 21.8627 5.941Z" stroke="#EC7220" stroke-linecap="round" stroke-linejoin="round"/>
</svg>
