<svg width="24" height="24" viewBox="0 0 24 24" fill="none" xmlns="http://www.w3.org/2000/svg">
<path d="M19.6923 4H4.30769C3.03319 4 2 5.03789 2 6.31818V18.6818C2 19.9621 3.03319 21 4.30769 21H19.6923C20.9668 21 22 19.9621 22 18.6818V6.31818C22 5.03789 20.9668 4 19.6923 4Z" stroke="#EC7220" stroke-linejoin="round"/>
<path d="M15.5 10C16.3284 10 17 9.32843 17 8.5C17 7.67157 16.3284 7 15.5 7C14.6716 7 14 7.67157 14 8.5C14 9.32843 14.6716 10 15.5 10Z" stroke="#EC7220" stroke-miterlimit="10"/>
<path d="M14.3077 15.5838L9.94904 11.4301C9.67168 11.1654 9.2989 11.0117 8.90687 11.0006C8.51485 10.9896 8.13319 11.1218 7.8399 11.3704L2 16.3278M10.4615 20L16.3913 14.3385C16.6625 14.079 17.0255 13.9258 17.409 13.9088C17.7925 13.8918 18.1688 14.0123 18.4639 14.2466L22 17.0623" stroke="#EC7220" stroke-linecap="round" stroke-linejoin="round"/>
</svg>
