<svg width="32" height="33" viewBox="0 0 32 33" fill="none" xmlns="http://www.w3.org/2000/svg">
<path d="M9.33203 11.833L13.2547 14.1522C15.5416 15.5043 16.4558 15.5043 18.7427 14.1522L22.6654 11.833" stroke="#EC7220" stroke-linecap="round" stroke-linejoin="round"/>
<path d="M2.68899 18.4678C2.77616 22.5552 2.81974 24.5989 4.32791 26.1128C5.83608 27.6268 7.93508 27.6794 12.1331 27.7849C14.7204 27.85 17.2822 27.85 19.8696 27.7849C24.0676 27.6794 26.1665 27.6268 27.6746 26.1128C29.1829 24.5989 29.2265 22.5552 29.3136 18.4678C29.3417 17.1536 29.3417 15.847 29.3136 14.5329C29.2265 10.4455 29.1829 8.40178 27.6746 6.88787C26.1665 5.37397 24.0676 5.32123 19.8696 5.21575C17.2822 5.15074 14.7204 5.15074 12.1331 5.21574C7.93508 5.32121 5.83608 5.37394 4.32791 6.88786C2.81974 8.40177 2.77615 10.4455 2.68899 14.5328C2.66096 15.847 2.66096 17.1536 2.68899 18.4678Z" stroke="#EC7220" stroke-linejoin="round"/>
</svg>
