<svg width="1920" height="64" viewBox="0 0 1920 64" fill="none" xmlns="http://www.w3.org/2000/svg">
<rect width="1920" height="64" fill="#EC7220"/>
<path d="M105 28L99.46 34L97 31.7406" stroke="white" stroke-linecap="round" stroke-linejoin="round"/>
<path d="M109.959 25.0947C105.875 24.3236 104.186 23.7524 100.5 22C96.8137 23.7524 95.1252 24.3236 91.0411 25.0947C90.3012 37.4389 99.7957 41.7014 100.5 42C101.204 41.7014 110.699 37.4389 109.959 25.0947Z" stroke="white" stroke-linecap="round" stroke-linejoin="round"/>
<path d="M131.496 36.508V37.5H126.072V36.508H128.344V29.66C128.259 29.788 128.115 29.9267 127.912 30.076C127.709 30.2253 127.475 30.364 127.208 30.492C126.952 30.62 126.696 30.7267 126.44 30.812C126.184 30.8973 125.949 30.94 125.736 30.94V29.884C125.981 29.884 126.248 29.8147 126.536 29.676C126.824 29.5373 127.101 29.3773 127.368 29.196C127.635 29.0147 127.859 28.844 128.04 28.684C128.221 28.524 128.323 28.4173 128.344 28.364H129.464V36.508H131.496ZM140.756 32.812C140.756 33.7507 140.58 34.588 140.228 35.324C139.886 36.0493 139.412 36.62 138.804 37.036C138.196 37.452 137.508 37.66 136.74 37.66C135.972 37.66 135.284 37.452 134.676 37.036C134.078 36.62 133.604 36.0493 133.252 35.324C132.9 34.588 132.724 33.7507 132.724 32.812C132.724 31.8733 132.9 31.0413 133.252 30.316C133.604 29.58 134.078 29.004 134.676 28.588C135.284 28.1613 135.972 27.948 136.74 27.948C137.508 27.948 138.196 28.1613 138.804 28.588C139.412 29.004 139.886 29.58 140.228 30.316C140.58 31.0413 140.756 31.8733 140.756 32.812ZM139.652 32.812C139.652 32.0547 139.529 31.388 139.284 30.812C139.038 30.236 138.697 29.788 138.26 29.468C137.822 29.1373 137.316 28.972 136.74 28.972C136.164 28.972 135.657 29.1373 135.22 29.468C134.782 29.788 134.436 30.236 134.18 30.812C133.934 31.388 133.812 32.0547 133.812 32.812C133.812 33.5693 133.934 34.236 134.18 34.812C134.436 35.388 134.782 35.836 135.22 36.156C135.657 36.476 136.164 36.636 136.74 36.636C137.316 36.636 137.822 36.476 138.26 36.156C138.697 35.8253 139.038 35.3773 139.284 34.812C139.529 34.236 139.652 33.5693 139.652 32.812ZM150.553 32.812C150.553 33.7507 150.377 34.588 150.025 35.324C149.683 36.0493 149.209 36.62 148.601 37.036C147.993 37.452 147.305 37.66 146.537 37.66C145.769 37.66 145.081 37.452 144.473 37.036C143.875 36.62 143.401 36.0493 143.049 35.324C142.697 34.588 142.521 33.7507 142.521 32.812C142.521 31.8733 142.697 31.0413 143.049 30.316C143.401 29.58 143.875 29.004 144.473 28.588C145.081 28.1613 145.769 27.948 146.537 27.948C147.305 27.948 147.993 28.1613 148.601 28.588C149.209 29.004 149.683 29.58 150.025 30.316C150.377 31.0413 150.553 31.8733 150.553 32.812ZM149.449 32.812C149.449 32.0547 149.326 31.388 149.081 30.812C148.835 30.236 148.494 29.788 148.057 29.468C147.619 29.1373 147.113 28.972 146.537 28.972C145.961 28.972 145.454 29.1373 145.017 29.468C144.579 29.788 144.233 30.236 143.977 30.812C143.731 31.388 143.609 32.0547 143.609 32.812C143.609 33.5693 143.731 34.236 143.977 34.812C144.233 35.388 144.579 35.836 145.017 36.156C145.454 36.476 145.961 36.636 146.537 36.636C147.113 36.636 147.619 36.476 148.057 36.156C148.494 35.8253 148.835 35.3773 149.081 34.812C149.326 34.236 149.449 33.5693 149.449 32.812ZM154.478 30.572C154.04 30.572 153.64 30.4707 153.278 30.268C152.915 30.0653 152.622 29.788 152.398 29.436C152.184 29.084 152.078 28.7 152.078 28.284C152.078 27.8573 152.184 27.468 152.398 27.116C152.622 26.764 152.915 26.4867 153.278 26.284C153.64 26.0813 154.04 25.98 154.478 25.98C154.915 25.98 155.315 26.0813 155.678 26.284C156.04 26.4867 156.328 26.764 156.542 27.116C156.755 27.468 156.862 27.852 156.862 28.268C156.862 28.6947 156.755 29.084 156.542 29.436C156.328 29.788 156.04 30.0653 155.678 30.268C155.315 30.4707 154.915 30.572 154.478 30.572ZM154.478 29.948C154.766 29.948 155.027 29.8733 155.262 29.724C155.507 29.564 155.699 29.356 155.838 29.1C155.976 28.844 156.046 28.572 156.046 28.284C156.046 27.9747 155.971 27.692 155.822 27.436C155.672 27.18 155.475 26.9827 155.23 26.844C154.995 26.6947 154.744 26.62 154.478 26.62C154.179 26.62 153.912 26.7 153.678 26.86C153.443 27.0093 153.251 27.212 153.102 27.468C152.963 27.7133 152.894 27.98 152.894 28.268C152.894 28.5773 152.963 28.86 153.102 29.116C153.251 29.3613 153.443 29.564 153.678 29.724C153.923 29.8733 154.19 29.948 154.478 29.948ZM159.838 37.66C159.4 37.66 159 37.5587 158.638 37.356C158.275 37.1533 157.987 36.876 157.774 36.524C157.56 36.172 157.454 35.7827 157.454 35.356C157.454 34.9293 157.56 34.5453 157.774 34.204C157.987 33.852 158.275 33.5747 158.638 33.372C159 33.1693 159.4 33.068 159.838 33.068C160.286 33.068 160.691 33.1693 161.054 33.372C161.416 33.5747 161.704 33.852 161.918 34.204C162.131 34.5453 162.238 34.9293 162.238 35.356C162.238 35.7827 162.131 36.172 161.918 36.524C161.704 36.8653 161.416 37.1427 161.054 37.356C160.691 37.5587 160.286 37.66 159.838 37.66ZM159.838 37.02C160.136 37.02 160.403 36.9453 160.638 36.796C160.883 36.636 161.07 36.4333 161.198 36.188C161.336 35.932 161.406 35.66 161.406 35.372C161.406 35.0627 161.331 34.78 161.182 34.524C161.043 34.268 160.851 34.0653 160.606 33.916C160.371 33.7667 160.115 33.692 159.838 33.692C159.55 33.692 159.283 33.772 159.038 33.932C158.803 34.0813 158.616 34.284 158.478 34.54C158.339 34.796 158.27 35.068 158.27 35.356C158.27 35.6653 158.339 35.948 158.478 36.204C158.627 36.4493 158.819 36.6467 159.054 36.796C159.299 36.9453 159.56 37.02 159.838 37.02ZM152.462 37.068L156.942 31.628L161.278 26.076L161.838 26.556L157.39 31.996L153.022 37.564L152.462 37.068ZM168.122 37.5V29.164H173.098V30.14H169.21V37.5H168.122ZM173.95 35.1C173.95 34.5773 174.099 34.1293 174.398 33.756C174.697 33.372 175.107 33.0787 175.63 32.876C176.163 32.6627 176.777 32.556 177.47 32.556C177.875 32.556 178.297 32.588 178.734 32.652C179.171 32.716 179.561 32.812 179.902 32.94V32.236C179.902 31.532 179.694 30.972 179.278 30.556C178.862 30.14 178.286 29.932 177.55 29.932C177.102 29.932 176.659 30.0173 176.222 30.188C175.795 30.348 175.347 30.588 174.878 30.908L174.462 30.14C175.006 29.7667 175.539 29.4893 176.062 29.308C176.585 29.116 177.118 29.02 177.662 29.02C178.686 29.02 179.497 29.3133 180.094 29.9C180.691 30.4867 180.99 31.2973 180.99 32.332V36.188C180.99 36.3373 181.022 36.4493 181.086 36.524C181.15 36.588 181.251 36.6253 181.39 36.636V37.5C181.273 37.5107 181.171 37.5213 181.086 37.532C181.001 37.5427 180.937 37.5427 180.894 37.532C180.627 37.5213 180.425 37.436 180.286 37.276C180.147 37.116 180.073 36.9453 180.062 36.764L180.046 36.156C179.673 36.636 179.187 37.0093 178.59 37.276C177.993 37.532 177.385 37.66 176.766 37.66C176.233 37.66 175.747 37.548 175.31 37.324C174.883 37.0893 174.547 36.78 174.302 36.396C174.067 36.0013 173.95 35.5693 173.95 35.1ZM179.534 35.74C179.651 35.5907 179.742 35.4467 179.806 35.308C179.87 35.1693 179.902 35.0467 179.902 34.94V33.724C179.539 33.5853 179.161 33.4787 178.766 33.404C178.382 33.3293 177.993 33.292 177.598 33.292C176.819 33.292 176.19 33.4467 175.71 33.756C175.23 34.0653 174.99 34.4867 174.99 35.02C174.99 35.3293 175.07 35.6227 175.23 35.9C175.39 36.1667 175.625 36.3907 175.934 36.572C176.243 36.7427 176.606 36.828 177.022 36.828C177.545 36.828 178.03 36.7267 178.478 36.524C178.937 36.3213 179.289 36.06 179.534 35.74ZM187.597 37.66C186.903 37.66 186.279 37.4787 185.725 37.116C185.181 36.7533 184.749 36.3053 184.429 35.772V40.908H183.341V29.164H184.317V30.78C184.647 30.2573 185.09 29.836 185.645 29.516C186.199 29.1853 186.791 29.02 187.421 29.02C187.997 29.02 188.525 29.1427 189.005 29.388C189.485 29.6227 189.901 29.9427 190.253 30.348C190.605 30.7533 190.877 31.2173 191.069 31.74C191.271 32.252 191.373 32.7853 191.373 33.34C191.373 34.1187 191.213 34.8387 190.893 35.5C190.583 36.1507 190.146 36.6733 189.581 37.068C189.015 37.4627 188.354 37.66 187.597 37.66ZM187.293 36.7C187.751 36.7 188.162 36.6093 188.525 36.428C188.887 36.236 189.197 35.98 189.453 35.66C189.719 35.34 189.922 34.9827 190.061 34.588C190.199 34.1827 190.269 33.7667 190.269 33.34C190.269 32.892 190.189 32.4653 190.029 32.06C189.879 31.6547 189.661 31.2973 189.373 30.988C189.085 30.6787 188.754 30.4333 188.381 30.252C188.007 30.0707 187.602 29.98 187.165 29.98C186.887 29.98 186.599 30.0333 186.301 30.14C186.002 30.2467 185.714 30.4013 185.437 30.604C185.17 30.796 184.946 31.0147 184.765 31.26C184.583 31.5053 184.471 31.7667 184.429 32.044V34.604C184.599 34.9987 184.829 35.356 185.117 35.676C185.405 35.9853 185.735 36.236 186.109 36.428C186.493 36.6093 186.887 36.7 187.293 36.7ZM192.544 35.1C192.544 34.5773 192.693 34.1293 192.992 33.756C193.29 33.372 193.701 33.0787 194.224 32.876C194.757 32.6627 195.37 32.556 196.064 32.556C196.469 32.556 196.89 32.588 197.328 32.652C197.765 32.716 198.154 32.812 198.496 32.94V32.236C198.496 31.532 198.288 30.972 197.872 30.556C197.456 30.14 196.88 29.932 196.144 29.932C195.696 29.932 195.253 30.0173 194.816 30.188C194.389 30.348 193.941 30.588 193.472 30.908L193.056 30.14C193.6 29.7667 194.133 29.4893 194.656 29.308C195.178 29.116 195.712 29.02 196.256 29.02C197.28 29.02 198.09 29.3133 198.688 29.9C199.285 30.4867 199.584 31.2973 199.584 32.332V36.188C199.584 36.3373 199.616 36.4493 199.68 36.524C199.744 36.588 199.845 36.6253 199.984 36.636V37.5C199.866 37.5107 199.765 37.5213 199.68 37.532C199.594 37.5427 199.53 37.5427 199.488 37.532C199.221 37.5213 199.018 37.436 198.88 37.276C198.741 37.116 198.666 36.9453 198.656 36.764L198.64 36.156C198.266 36.636 197.781 37.0093 197.184 37.276C196.586 37.532 195.978 37.66 195.36 37.66C194.826 37.66 194.341 37.548 193.904 37.324C193.477 37.0893 193.141 36.78 192.896 36.396C192.661 36.0013 192.544 35.5693 192.544 35.1ZM198.128 35.74C198.245 35.5907 198.336 35.4467 198.4 35.308C198.464 35.1693 198.496 35.0467 198.496 34.94V33.724C198.133 33.5853 197.754 33.4787 197.36 33.404C196.976 33.3293 196.586 33.292 196.192 33.292C195.413 33.292 194.784 33.4467 194.304 33.756C193.824 34.0653 193.584 34.4867 193.584 35.02C193.584 35.3293 193.664 35.6227 193.824 35.9C193.984 36.1667 194.218 36.3907 194.528 36.572C194.837 36.7427 195.2 36.828 195.616 36.828C196.138 36.828 196.624 36.7267 197.072 36.524C197.53 36.3213 197.882 36.06 198.128 35.74ZM201.918 37.5V29.164H203.006V32.748H207.774V29.164H208.862V37.5H207.774V33.724H203.006V37.5H201.918ZM213.343 37.5V30.14H210.367V29.164H217.407V30.14H214.431V37.5H213.343ZM218.872 37.5V29.18H219.96V36.028L225.032 29.164H226.008V37.5H224.92V30.764L219.928 37.5H218.872ZM227.764 37.5L230.244 34.092C229.678 34.0067 229.22 33.7613 228.868 33.356C228.526 32.94 228.356 32.3747 228.356 31.66C228.356 31.18 228.468 30.7533 228.692 30.38C228.916 30.0067 229.23 29.708 229.636 29.484C230.052 29.26 230.537 29.148 231.092 29.148H234.276V37.5H233.188V34.268H231.332L228.98 37.5H227.764ZM231.076 33.436H233.188V30.012H231.268C230.713 30.012 230.27 30.172 229.94 30.492C229.609 30.8013 229.444 31.196 229.444 31.676C229.444 32.1667 229.577 32.5827 229.844 32.924C230.121 33.2653 230.532 33.436 231.076 33.436ZM240.731 37.5V29.164H247.435V37.5H246.347V30.14H241.819V37.5H240.731ZM253.393 37.66C252.795 37.66 252.241 37.548 251.729 37.324C251.227 37.0893 250.79 36.7747 250.417 36.38C250.054 35.9747 249.771 35.516 249.569 35.004C249.366 34.4813 249.265 33.932 249.265 33.356C249.265 32.7587 249.366 32.204 249.569 31.692C249.771 31.1693 250.059 30.7107 250.433 30.316C250.806 29.9107 251.243 29.596 251.745 29.372C252.257 29.1373 252.811 29.02 253.409 29.02C254.006 29.02 254.555 29.1373 255.057 29.372C255.558 29.596 255.995 29.9107 256.369 30.316C256.742 30.7107 257.03 31.1693 257.233 31.692C257.435 32.204 257.537 32.7587 257.537 33.356C257.537 33.932 257.435 34.4813 257.233 35.004C257.03 35.516 256.742 35.9747 256.369 36.38C256.006 36.7747 255.569 37.0893 255.057 37.324C254.555 37.548 254.001 37.66 253.393 37.66ZM250.369 33.372C250.369 33.9907 250.502 34.556 250.769 35.068C251.046 35.5693 251.414 35.9693 251.873 36.268C252.331 36.556 252.838 36.7 253.393 36.7C253.947 36.7 254.454 36.5507 254.913 36.252C255.371 35.9533 255.739 35.548 256.017 35.036C256.294 34.5133 256.433 33.948 256.433 33.34C256.433 32.7213 256.294 32.156 256.017 31.644C255.739 31.132 255.371 30.7267 254.913 30.428C254.454 30.1293 253.947 29.98 253.393 29.98C252.838 29.98 252.331 30.1347 251.873 30.444C251.425 30.7533 251.062 31.164 250.785 31.676C250.507 32.1773 250.369 32.7427 250.369 33.372ZM258.428 39.436V36.524H258.572C258.818 36.524 259.042 36.4493 259.244 36.3C259.447 36.1507 259.628 35.8893 259.788 35.516C259.948 35.1427 260.076 34.6307 260.172 33.98C260.268 33.3187 260.332 32.4867 260.364 31.484L260.444 29.164H265.868V36.524H266.988V39.436H266.012V37.5H259.388V39.436H258.428ZM260.22 36.524H264.78V30.14H261.42L261.372 31.58C261.34 32.572 261.271 33.404 261.164 34.076C261.068 34.7373 260.94 35.2653 260.78 35.66C260.631 36.044 260.444 36.332 260.22 36.524ZM267.838 37.548V36.556C268.126 36.556 268.382 36.4813 268.606 36.332C268.83 36.172 269.027 35.9053 269.198 35.532C269.379 35.1587 269.523 34.6467 269.63 33.996C269.736 33.3347 269.806 32.4973 269.838 31.484L269.934 29.164H275.342V37.5H274.254V30.14H270.894L270.862 31.58C270.819 32.732 270.728 33.6973 270.59 34.476C270.451 35.244 270.254 35.852 269.998 36.3C269.752 36.748 269.448 37.068 269.086 37.26C268.723 37.452 268.307 37.548 267.838 37.548ZM277.731 37.5V29.18H278.819V36.028L283.891 29.164H284.867V37.5H283.779V30.764L278.787 37.5H277.731ZM287.231 37.5V29.164H288.319V32.748H293.087V29.164H294.175V37.5H293.087V33.724H288.319V37.5H287.231ZM296.559 37.5V29.164H297.647V32.748H302.415V29.164H303.503V37.5H302.415V33.724H297.647V37.5H296.559ZM309.455 37.66C308.858 37.66 308.303 37.548 307.791 37.324C307.29 37.0893 306.852 36.7747 306.479 36.38C306.116 35.9747 305.834 35.516 305.631 35.004C305.428 34.4813 305.327 33.932 305.327 33.356C305.327 32.7587 305.428 32.204 305.631 31.692C305.834 31.1693 306.122 30.7107 306.495 30.316C306.868 29.9107 307.306 29.596 307.807 29.372C308.319 29.1373 308.874 29.02 309.471 29.02C310.068 29.02 310.618 29.1373 311.119 29.372C311.62 29.596 312.058 29.9107 312.431 30.316C312.804 30.7107 313.092 31.1693 313.295 31.692C313.498 32.204 313.599 32.7587 313.599 33.356C313.599 33.932 313.498 34.4813 313.295 35.004C313.092 35.516 312.804 35.9747 312.431 36.38C312.068 36.7747 311.631 37.0893 311.119 37.324C310.618 37.548 310.063 37.66 309.455 37.66ZM306.431 33.372C306.431 33.9907 306.564 34.556 306.831 35.068C307.108 35.5693 307.476 35.9693 307.935 36.268C308.394 36.556 308.9 36.7 309.455 36.7C310.01 36.7 310.516 36.5507 310.975 36.252C311.434 35.9533 311.802 35.548 312.079 35.036C312.356 34.5133 312.495 33.948 312.495 33.34C312.495 32.7213 312.356 32.156 312.079 31.644C311.802 31.132 311.434 30.7267 310.975 30.428C310.516 30.1293 310.01 29.98 309.455 29.98C308.9 29.98 308.394 30.1347 307.935 30.444C307.487 30.7533 307.124 31.164 306.847 31.676C306.57 32.1773 306.431 32.7427 306.431 33.372ZM319.035 37.66C318.427 37.66 317.867 37.548 317.355 37.324C316.853 37.0893 316.411 36.7693 316.027 36.364C315.653 35.9587 315.36 35.4947 315.147 34.972C314.944 34.4493 314.843 33.8947 314.843 33.308C314.843 32.5187 315.019 31.7987 315.371 31.148C315.723 30.4973 316.213 29.98 316.843 29.596C317.472 29.212 318.197 29.02 319.019 29.02C319.797 29.02 320.485 29.2013 321.083 29.564C321.68 29.916 322.123 30.396 322.411 31.004L321.355 31.34C321.12 30.9133 320.789 30.5827 320.363 30.348C319.947 30.1027 319.483 29.98 318.971 29.98C318.416 29.98 317.909 30.124 317.451 30.412C316.992 30.7 316.624 31.0947 316.347 31.596C316.08 32.0973 315.947 32.668 315.947 33.308C315.947 33.9373 316.085 34.508 316.363 35.02C316.64 35.532 317.008 35.9427 317.467 36.252C317.925 36.5507 318.432 36.7 318.987 36.7C319.349 36.7 319.696 36.636 320.027 36.508C320.368 36.38 320.661 36.2093 320.907 35.996C321.163 35.772 321.333 35.532 321.419 35.276L322.491 35.596C322.341 35.9907 322.091 36.348 321.739 36.668C321.397 36.9773 320.992 37.2227 320.523 37.404C320.064 37.5747 319.568 37.66 319.035 37.66ZM326.28 37.5V30.14H323.304V29.164H330.344V30.14H327.368V37.5H326.28ZM331.809 37.5V29.18H332.897V36.028L337.969 29.164H338.945V37.5H337.857V30.764L332.865 37.5H331.809Z" fill="white"/>
<path d="M538.692 24H523.308C522.033 24 521 25.0379 521 26.3182V38.6818C521 39.9621 522.033 41 523.308 41H538.692C539.967 41 541 39.9621 541 38.6818V26.3182C541 25.0379 539.967 24 538.692 24Z" stroke="white" stroke-linejoin="round"/>
<path d="M534.5 30C535.328 30 536 29.3284 536 28.5C536 27.6716 535.328 27 534.5 27C533.672 27 533 27.6716 533 28.5C533 29.3284 533.672 30 534.5 30Z" stroke="white" stroke-miterlimit="10"/>
<path d="M533.308 35.5838L528.949 31.4301C528.672 31.1654 528.299 31.0117 527.907 31.0006C527.515 30.9896 527.133 31.1218 526.84 31.3704L521 36.3278M529.462 40L535.391 34.3385C535.663 34.079 536.026 33.9258 536.409 33.9088C536.792 33.8918 537.169 34.0123 537.464 34.2466L541 37.0623" stroke="white" stroke-linecap="round" stroke-linejoin="round"/>
<path d="M556.424 37.5V26.14H565V37.5H563.88V27.132H557.544V37.5H556.424ZM571.878 37.66C571.185 37.66 570.561 37.4787 570.006 37.116C569.462 36.7533 569.03 36.3053 568.71 35.772V40.908H567.622V29.164H568.598V30.78C568.929 30.2573 569.371 29.836 569.926 29.516C570.481 29.1853 571.073 29.02 571.702 29.02C572.278 29.02 572.806 29.1427 573.286 29.388C573.766 29.6227 574.182 29.9427 574.534 30.348C574.886 30.7533 575.158 31.2173 575.35 31.74C575.553 32.252 575.654 32.7853 575.654 33.34C575.654 34.1187 575.494 34.8387 575.174 35.5C574.865 36.1507 574.427 36.6733 573.862 37.068C573.297 37.4627 572.635 37.66 571.878 37.66ZM571.574 36.7C572.033 36.7 572.443 36.6093 572.806 36.428C573.169 36.236 573.478 35.98 573.734 35.66C574.001 35.34 574.203 34.9827 574.342 34.588C574.481 34.1827 574.55 33.7667 574.55 33.34C574.55 32.892 574.47 32.4653 574.31 32.06C574.161 31.6547 573.942 31.2973 573.654 30.988C573.366 30.6787 573.035 30.4333 572.662 30.252C572.289 30.0707 571.883 29.98 571.446 29.98C571.169 29.98 570.881 30.0333 570.582 30.14C570.283 30.2467 569.995 30.4013 569.718 30.604C569.451 30.796 569.227 31.0147 569.046 31.26C568.865 31.5053 568.753 31.7667 568.71 32.044V34.604C568.881 34.9987 569.11 35.356 569.398 35.676C569.686 35.9853 570.017 36.236 570.39 36.428C570.774 36.6093 571.169 36.7 571.574 36.7ZM581.049 37.66C580.452 37.66 579.897 37.548 579.385 37.324C578.884 37.0893 578.446 36.7747 578.073 36.38C577.71 35.9747 577.428 35.516 577.225 35.004C577.022 34.4813 576.921 33.932 576.921 33.356C576.921 32.7587 577.022 32.204 577.225 31.692C577.428 31.1693 577.716 30.7107 578.089 30.316C578.462 29.9107 578.9 29.596 579.401 29.372C579.913 29.1373 580.468 29.02 581.065 29.02C581.662 29.02 582.212 29.1373 582.713 29.372C583.214 29.596 583.652 29.9107 584.025 30.316C584.398 30.7107 584.686 31.1693 584.889 31.692C585.092 32.204 585.193 32.7587 585.193 33.356C585.193 33.932 585.092 34.4813 584.889 35.004C584.686 35.516 584.398 35.9747 584.025 36.38C583.662 36.7747 583.225 37.0893 582.713 37.324C582.212 37.548 581.657 37.66 581.049 37.66ZM578.025 33.372C578.025 33.9907 578.158 34.556 578.425 35.068C578.702 35.5693 579.07 35.9693 579.529 36.268C579.988 36.556 580.494 36.7 581.049 36.7C581.604 36.7 582.11 36.5507 582.569 36.252C583.028 35.9533 583.396 35.548 583.673 35.036C583.95 34.5133 584.089 33.948 584.089 33.34C584.089 32.7213 583.95 32.156 583.673 31.644C583.396 31.132 583.028 30.7267 582.569 30.428C582.11 30.1293 581.604 29.98 581.049 29.98C580.494 29.98 579.988 30.1347 579.529 30.444C579.081 30.7533 578.718 31.164 578.441 31.676C578.164 32.1773 578.025 32.7427 578.025 33.372ZM586.997 37.5V29.164H591.157C591.626 29.164 592.021 29.2653 592.341 29.468C592.661 29.66 592.901 29.9107 593.061 30.22C593.231 30.5293 593.317 30.86 593.317 31.212C593.317 31.66 593.21 32.0653 592.997 32.428C592.783 32.78 592.474 33.0467 592.069 33.228C592.549 33.3667 592.938 33.6173 593.237 33.98C593.535 34.3427 593.685 34.78 593.685 35.292C593.685 35.74 593.573 36.1293 593.349 36.46C593.135 36.7907 592.837 37.0467 592.453 37.228C592.079 37.4093 591.647 37.5 591.157 37.5H586.997ZM588.037 36.716H591.125C591.402 36.716 591.653 36.6467 591.877 36.508C592.111 36.3587 592.293 36.1667 592.421 35.932C592.559 35.6973 592.629 35.452 592.629 35.196C592.629 34.9187 592.565 34.668 592.437 34.444C592.309 34.2093 592.138 34.0227 591.925 33.884C591.711 33.7453 591.466 33.676 591.189 33.676H588.037V36.716ZM588.037 32.924H590.869C591.146 32.924 591.391 32.8493 591.605 32.7C591.818 32.5507 591.983 32.3587 592.101 32.124C592.218 31.8893 592.277 31.644 592.277 31.388C592.277 31.004 592.149 30.668 591.893 30.38C591.647 30.092 591.327 29.948 590.933 29.948H588.037V32.924ZM599.175 37.66C598.578 37.66 598.023 37.548 597.511 37.324C596.999 37.0893 596.556 36.7747 596.183 36.38C595.81 35.9747 595.516 35.5107 595.303 34.988C595.1 34.4653 594.999 33.9053 594.999 33.308C594.999 32.5293 595.175 31.8147 595.527 31.164C595.89 30.5133 596.386 29.996 597.015 29.612C597.644 29.2173 598.359 29.02 599.159 29.02C599.98 29.02 600.695 29.2173 601.303 29.612C601.922 30.0067 602.407 30.5293 602.759 31.18C603.111 31.82 603.287 32.524 603.287 33.292C603.287 33.3773 603.287 33.4627 603.287 33.548C603.287 33.6227 603.282 33.6813 603.271 33.724H596.135C596.188 34.3213 596.354 34.8547 596.631 35.324C596.919 35.7827 597.287 36.1507 597.735 36.428C598.194 36.6947 598.69 36.828 599.223 36.828C599.767 36.828 600.279 36.6893 600.759 36.412C601.25 36.1347 601.591 35.772 601.783 35.324L602.727 35.58C602.556 35.9747 602.295 36.332 601.943 36.652C601.591 36.972 601.175 37.2227 600.695 37.404C600.226 37.5747 599.719 37.66 599.175 37.66ZM596.103 32.94H602.263C602.22 32.332 602.055 31.7987 601.767 31.34C601.49 30.8813 601.122 30.524 600.663 30.268C600.215 30.0013 599.719 29.868 599.175 29.868C598.631 29.868 598.135 30.0013 597.687 30.268C597.239 30.524 596.871 30.8867 596.583 31.356C596.306 31.8147 596.146 32.3427 596.103 32.94ZM609.222 37.66C608.528 37.66 607.904 37.4787 607.35 37.116C606.806 36.7533 606.374 36.3053 606.054 35.772V40.908H604.966V29.164H605.942V30.78C606.272 30.2573 606.715 29.836 607.27 29.516C607.824 29.1853 608.416 29.02 609.046 29.02C609.622 29.02 610.15 29.1427 610.63 29.388C611.11 29.6227 611.526 29.9427 611.878 30.348C612.23 30.7533 612.502 31.2173 612.694 31.74C612.896 32.252 612.998 32.7853 612.998 33.34C612.998 34.1187 612.838 34.8387 612.518 35.5C612.208 36.1507 611.771 36.6733 611.206 37.068C610.64 37.4627 609.979 37.66 609.222 37.66ZM608.918 36.7C609.376 36.7 609.787 36.6093 610.15 36.428C610.512 36.236 610.822 35.98 611.078 35.66C611.344 35.34 611.547 34.9827 611.686 34.588C611.824 34.1827 611.894 33.7667 611.894 33.34C611.894 32.892 611.814 32.4653 611.654 32.06C611.504 31.6547 611.286 31.2973 610.998 30.988C610.71 30.6787 610.379 30.4333 610.006 30.252C609.632 30.0707 609.227 29.98 608.79 29.98C608.512 29.98 608.224 30.0333 607.926 30.14C607.627 30.2467 607.339 30.4013 607.062 30.604C606.795 30.796 606.571 31.0147 606.39 31.26C606.208 31.5053 606.096 31.7667 606.054 32.044V34.604C606.224 34.9987 606.454 35.356 606.742 35.676C607.03 35.9853 607.36 36.236 607.734 36.428C608.118 36.6093 608.512 36.7 608.918 36.7ZM614.825 37.5V29.164H615.913V32.732H617.161L619.961 29.164H621.209L618.025 33.212L621.609 37.5H620.329L617.161 33.74H615.913V37.5H614.825ZM622.45 35.1C622.45 34.5773 622.599 34.1293 622.898 33.756C623.197 33.372 623.607 33.0787 624.13 32.876C624.663 32.6627 625.277 32.556 625.97 32.556C626.375 32.556 626.797 32.588 627.234 32.652C627.671 32.716 628.061 32.812 628.402 32.94V32.236C628.402 31.532 628.194 30.972 627.778 30.556C627.362 30.14 626.786 29.932 626.05 29.932C625.602 29.932 625.159 30.0173 624.722 30.188C624.295 30.348 623.847 30.588 623.378 30.908L622.962 30.14C623.506 29.7667 624.039 29.4893 624.562 29.308C625.085 29.116 625.618 29.02 626.162 29.02C627.186 29.02 627.997 29.3133 628.594 29.9C629.191 30.4867 629.49 31.2973 629.49 32.332V36.188C629.49 36.3373 629.522 36.4493 629.586 36.524C629.65 36.588 629.751 36.6253 629.89 36.636V37.5C629.773 37.5107 629.671 37.5213 629.586 37.532C629.501 37.5427 629.437 37.5427 629.394 37.532C629.127 37.5213 628.925 37.436 628.786 37.276C628.647 37.116 628.573 36.9453 628.562 36.764L628.546 36.156C628.173 36.636 627.687 37.0093 627.09 37.276C626.493 37.532 625.885 37.66 625.266 37.66C624.733 37.66 624.247 37.548 623.81 37.324C623.383 37.0893 623.047 36.78 622.802 36.396C622.567 36.0013 622.45 35.5693 622.45 35.1ZM628.034 35.74C628.151 35.5907 628.242 35.4467 628.306 35.308C628.37 35.1693 628.402 35.0467 628.402 34.94V33.724C628.039 33.5853 627.661 33.4787 627.266 33.404C626.882 33.3293 626.493 33.292 626.098 33.292C625.319 33.292 624.69 33.4467 624.21 33.756C623.73 34.0653 623.49 34.4867 623.49 35.02C623.49 35.3293 623.57 35.6227 623.73 35.9C623.89 36.1667 624.125 36.3907 624.434 36.572C624.743 36.7427 625.106 36.828 625.522 36.828C626.045 36.828 626.53 36.7267 626.978 36.524C627.437 36.3213 627.789 36.06 628.034 35.74ZM639.535 37.66C638.927 37.66 638.367 37.548 637.855 37.324C637.353 37.0893 636.911 36.7693 636.527 36.364C636.153 35.9587 635.86 35.4947 635.647 34.972C635.444 34.4493 635.343 33.8947 635.343 33.308C635.343 32.5187 635.519 31.7987 635.871 31.148C636.223 30.4973 636.713 29.98 637.343 29.596C637.972 29.212 638.697 29.02 639.519 29.02C640.297 29.02 640.985 29.2013 641.583 29.564C642.18 29.916 642.623 30.396 642.911 31.004L641.855 31.34C641.62 30.9133 641.289 30.5827 640.863 30.348C640.447 30.1027 639.983 29.98 639.471 29.98C638.916 29.98 638.409 30.124 637.951 30.412C637.492 30.7 637.124 31.0947 636.847 31.596C636.58 32.0973 636.447 32.668 636.447 33.308C636.447 33.9373 636.585 34.508 636.863 35.02C637.14 35.532 637.508 35.9427 637.967 36.252C638.425 36.5507 638.932 36.7 639.487 36.7C639.849 36.7 640.196 36.636 640.527 36.508C640.868 36.38 641.161 36.2093 641.407 35.996C641.663 35.772 641.833 35.532 641.919 35.276L642.991 35.596C642.841 35.9907 642.591 36.348 642.239 36.668C641.897 36.9773 641.492 37.2227 641.023 37.404C640.564 37.5747 640.068 37.66 639.535 37.66ZM645.487 40.988C645.306 40.988 645.119 40.956 644.927 40.892C644.746 40.8387 644.559 40.7587 644.367 40.652L644.767 39.884C644.884 39.948 644.991 40.0013 645.087 40.044C645.194 40.0867 645.306 40.108 645.423 40.108C645.7 40.108 645.962 39.9693 646.207 39.692C646.452 39.4147 646.687 39.0093 646.911 38.476L647.327 37.436L643.615 29.164H644.767L647.823 36.38L650.639 29.164H651.727L647.759 38.812C647.546 39.3133 647.322 39.724 647.087 40.044C646.852 40.364 646.602 40.5987 646.335 40.748C646.068 40.908 645.786 40.988 645.487 40.988ZM653.231 37.5V29.164H654.351L657.663 34.908L660.991 29.164H662.063V37.5H661.023V30.796L658.015 36.012H657.311L654.271 30.796V37.5H653.231ZM664.45 37.5V29.164H665.538V32.732H666.786L669.586 29.164H670.834L667.65 33.212L671.234 37.5H669.954L666.786 33.74H665.538V37.5H664.45ZM672.762 37.5V29.18H673.85V36.028L678.922 29.164H679.898V37.5H678.81V30.764L673.818 37.5H672.762ZM685.828 31.74C685.828 31.0467 685.946 30.3693 686.18 29.708C686.426 29.036 686.778 28.428 687.236 27.884C687.695 27.3293 688.26 26.892 688.932 26.572C689.604 26.2413 690.367 26.076 691.22 26.076C692.234 26.076 693.098 26.3107 693.812 26.78C694.538 27.2387 695.071 27.8307 695.412 28.556L694.532 29.1C694.287 28.5987 693.978 28.204 693.604 27.916C693.231 27.6173 692.831 27.404 692.404 27.276C691.988 27.148 691.572 27.084 691.156 27.084C690.474 27.084 689.871 27.2227 689.348 27.5C688.826 27.7667 688.383 28.1293 688.02 28.588C687.668 29.036 687.402 29.5427 687.22 30.108C687.039 30.6627 686.948 31.228 686.948 31.804C686.948 32.4333 687.055 33.036 687.268 33.612C687.482 34.188 687.78 34.7 688.164 35.148C688.548 35.5853 688.996 35.9373 689.508 36.204C690.031 36.46 690.596 36.588 691.204 36.588C691.631 36.588 692.068 36.5133 692.516 36.364C692.964 36.2147 693.38 35.9853 693.764 35.676C694.159 35.3667 694.474 34.9667 694.708 34.476L695.636 34.956C695.402 35.5213 695.039 36.0013 694.548 36.396C694.058 36.7907 693.508 37.0893 692.9 37.292C692.303 37.4947 691.716 37.596 691.14 37.596C690.362 37.596 689.647 37.4307 688.996 37.1C688.346 36.7587 687.78 36.3107 687.3 35.756C686.831 35.1907 686.468 34.5613 686.212 33.868C685.956 33.164 685.828 32.4547 685.828 31.74ZM704.333 37.5H703.245V32.844C703.245 31.9053 703.08 31.2013 702.749 30.732C702.418 30.252 701.944 30.012 701.325 30.012C700.92 30.012 700.514 30.1187 700.109 30.332C699.714 30.5347 699.362 30.8173 699.053 31.18C698.754 31.532 698.541 31.9373 698.413 32.396V37.5H697.325V25.82H698.413V31.052C698.744 30.4333 699.202 29.9427 699.789 29.58C700.386 29.2067 701.021 29.02 701.693 29.02C702.173 29.02 702.578 29.1053 702.909 29.276C703.25 29.4467 703.522 29.6973 703.725 30.028C703.938 30.348 704.093 30.7267 704.189 31.164C704.285 31.5907 704.333 32.076 704.333 32.62V37.5ZM705.981 35.1C705.981 34.5773 706.13 34.1293 706.429 33.756C706.728 33.372 707.138 33.0787 707.661 32.876C708.194 32.6627 708.808 32.556 709.501 32.556C709.906 32.556 710.328 32.588 710.765 32.652C711.202 32.716 711.592 32.812 711.933 32.94V32.236C711.933 31.532 711.725 30.972 711.309 30.556C710.893 30.14 710.317 29.932 709.581 29.932C709.133 29.932 708.69 30.0173 708.253 30.188C707.826 30.348 707.378 30.588 706.909 30.908L706.493 30.14C707.037 29.7667 707.57 29.4893 708.093 29.308C708.616 29.116 709.149 29.02 709.693 29.02C710.717 29.02 711.528 29.3133 712.125 29.9C712.722 30.4867 713.021 31.2973 713.021 32.332V36.188C713.021 36.3373 713.053 36.4493 713.117 36.524C713.181 36.588 713.282 36.6253 713.421 36.636V37.5C713.304 37.5107 713.202 37.5213 713.117 37.532C713.032 37.5427 712.968 37.5427 712.925 37.532C712.658 37.5213 712.456 37.436 712.317 37.276C712.178 37.116 712.104 36.9453 712.093 36.764L712.077 36.156C711.704 36.636 711.218 37.0093 710.621 37.276C710.024 37.532 709.416 37.66 708.797 37.66C708.264 37.66 707.778 37.548 707.341 37.324C706.914 37.0893 706.578 36.78 706.333 36.396C706.098 36.0013 705.981 35.5693 705.981 35.1ZM711.565 35.74C711.682 35.5907 711.773 35.4467 711.837 35.308C711.901 35.1693 711.933 35.0467 711.933 34.94V33.724C711.57 33.5853 711.192 33.4787 710.797 33.404C710.413 33.3293 710.024 33.292 709.629 33.292C708.85 33.292 708.221 33.4467 707.741 33.756C707.261 34.0653 707.021 34.4867 707.021 35.02C707.021 35.3293 707.101 35.6227 707.261 35.9C707.421 36.1667 707.656 36.3907 707.965 36.572C708.274 36.7427 708.637 36.828 709.053 36.828C709.576 36.828 710.061 36.7267 710.509 36.524C710.968 36.3213 711.32 36.06 711.565 35.74ZM722.38 37.5H721.292V32.844C721.292 31.8627 721.148 31.148 720.86 30.7C720.572 30.2413 720.119 30.012 719.5 30.012C719.073 30.012 718.652 30.1187 718.236 30.332C717.82 30.5347 717.452 30.8173 717.132 31.18C716.823 31.532 716.599 31.9373 716.46 32.396V37.5H715.372V29.164H716.364V31.052C716.588 30.6467 716.881 30.2947 717.244 29.996C717.607 29.6867 718.017 29.4467 718.476 29.276C718.935 29.1053 719.409 29.02 719.9 29.02C720.359 29.02 720.748 29.1053 721.068 29.276C721.388 29.4467 721.644 29.692 721.836 30.012C722.028 30.3213 722.167 30.7 722.252 31.148C722.337 31.5853 722.38 32.076 722.38 32.62V37.5ZM728.3 37.66C727.703 37.66 727.148 37.548 726.636 37.324C726.124 37.0893 725.681 36.7747 725.308 36.38C724.935 35.9747 724.641 35.5107 724.428 34.988C724.225 34.4653 724.124 33.9053 724.124 33.308C724.124 32.5293 724.3 31.8147 724.652 31.164C725.015 30.5133 725.511 29.996 726.14 29.612C726.769 29.2173 727.484 29.02 728.284 29.02C729.105 29.02 729.82 29.2173 730.428 29.612C731.047 30.0067 731.532 30.5293 731.884 31.18C732.236 31.82 732.412 32.524 732.412 33.292C732.412 33.3773 732.412 33.4627 732.412 33.548C732.412 33.6227 732.407 33.6813 732.396 33.724H725.26C725.313 34.3213 725.479 34.8547 725.756 35.324C726.044 35.7827 726.412 36.1507 726.86 36.428C727.319 36.6947 727.815 36.828 728.348 36.828C728.892 36.828 729.404 36.6893 729.884 36.412C730.375 36.1347 730.716 35.772 730.908 35.324L731.852 35.58C731.681 35.9747 731.42 36.332 731.068 36.652C730.716 36.972 730.3 37.2227 729.82 37.404C729.351 37.5747 728.844 37.66 728.3 37.66ZM725.228 32.94H731.388C731.345 32.332 731.18 31.7987 730.892 31.34C730.615 30.8813 730.247 30.524 729.788 30.268C729.34 30.0013 728.844 29.868 728.3 29.868C727.756 29.868 727.26 30.0013 726.812 30.268C726.364 30.524 725.996 30.8867 725.708 31.356C725.431 31.8147 725.271 32.3427 725.228 32.94ZM734.139 25.82H735.227V35.612C735.227 36.028 735.301 36.3 735.451 36.428C735.6 36.556 735.781 36.62 735.995 36.62C736.187 36.62 736.379 36.5987 736.571 36.556C736.763 36.5133 736.928 36.4707 737.067 36.428L737.259 37.308C737.056 37.3933 736.805 37.4627 736.507 37.516C736.219 37.5693 735.968 37.596 735.755 37.596C735.264 37.596 734.869 37.452 734.571 37.164C734.283 36.876 734.139 36.4813 734.139 35.98V25.82ZM745.596 37.66C744.998 37.66 744.444 37.548 743.932 37.324C743.43 37.0893 742.993 36.7747 742.62 36.38C742.257 35.9747 741.974 35.516 741.772 35.004C741.569 34.4813 741.468 33.932 741.468 33.356C741.468 32.7587 741.569 32.204 741.772 31.692C741.974 31.1693 742.262 30.7107 742.636 30.316C743.009 29.9107 743.446 29.596 743.948 29.372C744.46 29.1373 745.014 29.02 745.612 29.02C746.209 29.02 746.758 29.1373 747.26 29.372C747.761 29.596 748.198 29.9107 748.572 30.316C748.945 30.7107 749.233 31.1693 749.436 31.692C749.638 32.204 749.74 32.7587 749.74 33.356C749.74 33.932 749.638 34.4813 749.436 35.004C749.233 35.516 748.945 35.9747 748.572 36.38C748.209 36.7747 747.772 37.0893 747.26 37.324C746.758 37.548 746.204 37.66 745.596 37.66ZM742.572 33.372C742.572 33.9907 742.705 34.556 742.972 35.068C743.249 35.5693 743.617 35.9693 744.076 36.268C744.534 36.556 745.041 36.7 745.596 36.7C746.15 36.7 746.657 36.5507 747.116 36.252C747.574 35.9533 747.942 35.548 748.22 35.036C748.497 34.5133 748.636 33.948 748.636 33.34C748.636 32.7213 748.497 32.156 748.22 31.644C747.942 31.132 747.574 30.7267 747.116 30.428C746.657 30.1293 746.15 29.98 745.596 29.98C745.041 29.98 744.534 30.1347 744.076 30.444C743.628 30.7533 743.265 31.164 742.988 31.676C742.71 32.1773 742.572 32.7427 742.572 33.372ZM751.543 37.5V29.164H752.631V32.748H757.399V29.164H758.487V37.5H757.399V33.724H752.631V37.5H751.543ZM760.088 37.548V36.556C760.376 36.556 760.632 36.4813 760.856 36.332C761.08 36.172 761.277 35.9053 761.448 35.532C761.629 35.1587 761.773 34.6467 761.88 33.996C761.986 33.3347 762.056 32.4973 762.088 31.484L762.184 29.164H767.592V37.5H766.504V30.14H763.144L763.112 31.58C763.069 32.732 762.978 33.6973 762.84 34.476C762.701 35.244 762.504 35.852 762.248 36.3C762.002 36.748 761.698 37.068 761.336 37.26C760.973 37.452 760.557 37.548 760.088 37.548ZM769.325 35.1C769.325 34.5773 769.474 34.1293 769.773 33.756C770.072 33.372 770.482 33.0787 771.005 32.876C771.538 32.6627 772.152 32.556 772.845 32.556C773.25 32.556 773.672 32.588 774.109 32.652C774.546 32.716 774.936 32.812 775.277 32.94V32.236C775.277 31.532 775.069 30.972 774.653 30.556C774.237 30.14 773.661 29.932 772.925 29.932C772.477 29.932 772.034 30.0173 771.597 30.188C771.17 30.348 770.722 30.588 770.253 30.908L769.837 30.14C770.381 29.7667 770.914 29.4893 771.437 29.308C771.96 29.116 772.493 29.02 773.037 29.02C774.061 29.02 774.872 29.3133 775.469 29.9C776.066 30.4867 776.365 31.2973 776.365 32.332V36.188C776.365 36.3373 776.397 36.4493 776.461 36.524C776.525 36.588 776.626 36.6253 776.765 36.636V37.5C776.648 37.5107 776.546 37.5213 776.461 37.532C776.376 37.5427 776.312 37.5427 776.269 37.532C776.002 37.5213 775.8 37.436 775.661 37.276C775.522 37.116 775.448 36.9453 775.437 36.764L775.421 36.156C775.048 36.636 774.562 37.0093 773.965 37.276C773.368 37.532 772.76 37.66 772.141 37.66C771.608 37.66 771.122 37.548 770.685 37.324C770.258 37.0893 769.922 36.78 769.677 36.396C769.442 36.0013 769.325 35.5693 769.325 35.1ZM774.909 35.74C775.026 35.5907 775.117 35.4467 775.181 35.308C775.245 35.1693 775.277 35.0467 775.277 34.94V33.724C774.914 33.5853 774.536 33.4787 774.141 33.404C773.757 33.3293 773.368 33.292 772.973 33.292C772.194 33.292 771.565 33.4467 771.085 33.756C770.605 34.0653 770.365 34.4867 770.365 35.02C770.365 35.3293 770.445 35.6227 770.605 35.9C770.765 36.1667 771 36.3907 771.309 36.572C771.618 36.7427 771.981 36.828 772.397 36.828C772.92 36.828 773.405 36.7267 773.853 36.524C774.312 36.3213 774.664 36.06 774.909 35.74ZM778.7 37.5V29.18H779.788V36.028L784.86 29.164H785.836V37.5H784.748V30.764L779.756 37.5H778.7ZM782.284 28.108C781.558 28.108 780.998 27.9373 780.604 27.596C780.209 27.2547 780.012 26.8227 780.012 26.3H780.812C780.812 26.62 780.929 26.8867 781.164 27.1C781.409 27.3133 781.782 27.42 782.284 27.42C782.774 27.42 783.132 27.3187 783.356 27.116C783.59 26.9133 783.724 26.6413 783.756 26.3H784.54C784.54 26.8227 784.342 27.2547 783.948 27.596C783.553 27.9373 782.998 28.108 782.284 28.108ZM788.2 37.5V29.164H789.288V32.748H794.056V29.164H795.144V37.5H794.056V33.724H789.288V37.5H788.2ZM801.606 37.5V29.18H802.694V36.028L807.766 29.164H808.742V37.5H807.654V30.764L802.662 37.5H801.606ZM815.184 37.5V29.164H821.888V37.5H820.8V30.14H816.272V37.5H815.184ZM827.846 37.66C827.248 37.66 826.694 37.548 826.182 37.324C825.68 37.0893 825.243 36.7747 824.87 36.38C824.507 35.9747 824.224 35.516 824.022 35.004C823.819 34.4813 823.718 33.932 823.718 33.356C823.718 32.7587 823.819 32.204 824.022 31.692C824.224 31.1693 824.512 30.7107 824.886 30.316C825.259 29.9107 825.696 29.596 826.198 29.372C826.71 29.1373 827.264 29.02 827.862 29.02C828.459 29.02 829.008 29.1373 829.51 29.372C830.011 29.596 830.448 29.9107 830.822 30.316C831.195 30.7107 831.483 31.1693 831.686 31.692C831.888 32.204 831.99 32.7587 831.99 33.356C831.99 33.932 831.888 34.4813 831.686 35.004C831.483 35.516 831.195 35.9747 830.822 36.38C830.459 36.7747 830.022 37.0893 829.51 37.324C829.008 37.548 828.454 37.66 827.846 37.66ZM824.822 33.372C824.822 33.9907 824.955 34.556 825.222 35.068C825.499 35.5693 825.867 35.9693 826.326 36.268C826.784 36.556 827.291 36.7 827.846 36.7C828.4 36.7 828.907 36.5507 829.366 36.252C829.824 35.9533 830.192 35.548 830.47 35.036C830.747 34.5133 830.886 33.948 830.886 33.34C830.886 32.7213 830.747 32.156 830.47 31.644C830.192 31.132 829.824 30.7267 829.366 30.428C828.907 30.1293 828.4 29.98 827.846 29.98C827.291 29.98 826.784 30.1347 826.326 30.444C825.878 30.7533 825.515 31.164 825.238 31.676C824.96 32.1773 824.822 32.7427 824.822 33.372ZM841.728 40.908V37.5H841.36C840.538 37.5 839.824 37.308 839.216 36.924C838.608 36.54 838.138 36.0387 837.808 35.42C837.477 34.7907 837.312 34.1027 837.312 33.356C837.312 32.5987 837.477 31.9053 837.808 31.276C838.149 30.6467 838.624 30.14 839.232 29.756C839.84 29.372 840.549 29.18 841.36 29.18H841.728V25.82H842.816V29.18H843.184C843.994 29.18 844.704 29.372 845.312 29.756C845.92 30.14 846.389 30.6467 846.72 31.276C847.061 31.9053 847.232 32.5987 847.232 33.356C847.232 34.1027 847.066 34.7907 846.736 35.42C846.405 36.0387 845.936 36.54 845.328 36.924C844.72 37.308 844.005 37.5 843.184 37.5H842.816V40.908H841.728ZM841.36 36.588H841.76V30.092H841.36C840.784 30.092 840.272 30.2413 839.824 30.54C839.376 30.828 839.024 31.2227 838.768 31.724C838.512 32.2147 838.384 32.764 838.384 33.372C838.384 33.9693 838.506 34.5133 838.752 35.004C839.008 35.4947 839.36 35.884 839.808 36.172C840.256 36.4493 840.773 36.588 841.36 36.588ZM842.768 36.588H843.184C843.77 36.588 844.288 36.4493 844.736 36.172C845.184 35.884 845.53 35.4947 845.776 35.004C846.032 34.5133 846.16 33.9693 846.16 33.372C846.16 32.764 846.032 32.2147 845.776 31.724C845.52 31.2227 845.168 30.828 844.72 30.54C844.282 30.2413 843.77 30.092 843.184 30.092H842.768V36.588ZM852.611 37.66C852.014 37.66 851.459 37.548 850.947 37.324C850.446 37.0893 850.009 36.7747 849.635 36.38C849.273 35.9747 848.99 35.516 848.787 35.004C848.585 34.4813 848.483 33.932 848.483 33.356C848.483 32.7587 848.585 32.204 848.787 31.692C848.99 31.1693 849.278 30.7107 849.651 30.316C850.025 29.9107 850.462 29.596 850.963 29.372C851.475 29.1373 852.03 29.02 852.627 29.02C853.225 29.02 853.774 29.1373 854.275 29.372C854.777 29.596 855.214 29.9107 855.587 30.316C855.961 30.7107 856.249 31.1693 856.451 31.692C856.654 32.204 856.755 32.7587 856.755 33.356C856.755 33.932 856.654 34.4813 856.451 35.004C856.249 35.516 855.961 35.9747 855.587 36.38C855.225 36.7747 854.787 37.0893 854.275 37.324C853.774 37.548 853.219 37.66 852.611 37.66ZM849.587 33.372C849.587 33.9907 849.721 34.556 849.987 35.068C850.265 35.5693 850.633 35.9693 851.091 36.268C851.55 36.556 852.057 36.7 852.611 36.7C853.166 36.7 853.673 36.5507 854.131 36.252C854.59 35.9533 854.958 35.548 855.235 35.036C855.513 34.5133 855.651 33.948 855.651 33.34C855.651 32.7213 855.513 32.156 855.235 31.644C854.958 31.132 854.59 30.7267 854.131 30.428C853.673 30.1293 853.166 29.98 852.611 29.98C852.057 29.98 851.55 30.1347 851.091 30.444C850.643 30.7533 850.281 31.164 850.003 31.676C849.726 32.1773 849.587 32.7427 849.587 33.372ZM860.655 37.5V30.14H857.679V29.164H864.719V30.14H861.743V37.5H860.655ZM869.752 37.66C869.155 37.66 868.6 37.548 868.088 37.324C867.587 37.0893 867.149 36.7747 866.776 36.38C866.413 35.9747 866.131 35.516 865.928 35.004C865.725 34.4813 865.624 33.932 865.624 33.356C865.624 32.7587 865.725 32.204 865.928 31.692C866.131 31.1693 866.419 30.7107 866.792 30.316C867.165 29.9107 867.603 29.596 868.104 29.372C868.616 29.1373 869.171 29.02 869.768 29.02C870.365 29.02 870.915 29.1373 871.416 29.372C871.917 29.596 872.355 29.9107 872.728 30.316C873.101 30.7107 873.389 31.1693 873.592 31.692C873.795 32.204 873.896 32.7587 873.896 33.356C873.896 33.932 873.795 34.4813 873.592 35.004C873.389 35.516 873.101 35.9747 872.728 36.38C872.365 36.7747 871.928 37.0893 871.416 37.324C870.915 37.548 870.36 37.66 869.752 37.66ZM866.728 33.372C866.728 33.9907 866.861 34.556 867.128 35.068C867.405 35.5693 867.773 35.9693 868.232 36.268C868.691 36.556 869.197 36.7 869.752 36.7C870.307 36.7 870.813 36.5507 871.272 36.252C871.731 35.9533 872.099 35.548 872.376 35.036C872.653 34.5133 872.792 33.948 872.792 33.34C872.792 32.7213 872.653 32.156 872.376 31.644C872.099 31.132 871.731 30.7267 871.272 30.428C870.813 30.1293 870.307 29.98 869.752 29.98C869.197 29.98 868.691 30.1347 868.232 30.444C867.784 30.7533 867.421 31.164 867.144 31.676C866.867 32.1773 866.728 32.7427 866.728 33.372Z" fill="white"/>
<path d="M1075.87 29.4634L1070.37 24.13C1070.28 24.0464 1070.16 24 1070.04 24H1059.96C1059.84 24 1059.72 24.0464 1059.63 24.13L1054.13 29.4634C1054.05 29.5471 1054 29.6634 1054 29.7825C1054 29.9015 1054.05 30.0151 1054.14 30.0988L1064.68 39.8759C1064.86 40.0414 1065.14 40.0414 1065.32 39.8759L1075.86 30.0988C1075.95 30.0151 1076 29.9006 1076 29.7825C1076 29.6634 1075.95 29.5471 1075.87 29.4634ZM1069.41 24.889L1068.12 28.7535L1065.8 24.889H1069.41ZM1067.41 29.3327H1062.59L1065 25.3262L1067.41 29.3327ZM1064.2 24.889L1061.88 28.7535L1060.59 24.889H1064.2ZM1059.75 25.2725L1061.11 29.3325H1055.57L1059.75 25.2725ZM1055.6 30.2216H1061.41L1064.01 38.0163L1055.6 30.2216ZM1065 38.1117L1062.37 30.2216H1067.63L1065 38.1117ZM1065.99 38.0163L1068.6 30.2216H1074.4L1065.99 38.0163ZM1068.89 29.3327L1070.25 25.2727L1074.43 29.3327H1068.89Z" fill="white"/>
<path d="M1090.41 37.5V25.8636H1094.34C1095.25 25.8636 1096 26.0284 1096.58 26.358C1097.16 26.6837 1097.59 27.125 1097.88 27.6818C1098.16 28.2386 1098.3 28.8598 1098.3 29.5455C1098.3 30.2311 1098.16 30.8542 1097.88 31.4148C1097.6 31.9754 1097.17 32.4223 1096.59 32.7557C1096.01 33.0852 1095.27 33.25 1094.36 33.25H1091.55V32H1094.32C1094.94 32 1095.45 31.892 1095.82 31.6761C1096.2 31.4602 1096.48 31.1686 1096.65 30.8011C1096.82 30.4299 1096.91 30.0114 1096.91 29.5455C1096.91 29.0795 1096.82 28.6629 1096.65 28.2955C1096.48 27.928 1096.2 27.6402 1095.82 27.4318C1095.44 27.2197 1094.93 27.1136 1094.3 27.1136H1091.82V37.5H1090.41ZM1102.95 37.7045C1102.4 37.7045 1101.9 37.6004 1101.45 37.392C1101 37.1799 1100.64 36.875 1100.37 36.4773C1100.11 36.0758 1099.97 35.5909 1099.97 35.0227C1099.97 34.5227 1100.07 34.1174 1100.27 33.8068C1100.47 33.4924 1100.73 33.2462 1101.06 33.0682C1101.39 32.8902 1101.75 32.7576 1102.15 32.6705C1102.55 32.5795 1102.96 32.5076 1103.36 32.4545C1103.89 32.3864 1104.32 32.3352 1104.65 32.3011C1104.98 32.2633 1105.23 32.2008 1105.38 32.1136C1105.53 32.0265 1105.61 31.875 1105.61 31.6591V31.6136C1105.61 31.053 1105.46 30.6174 1105.15 30.3068C1104.85 29.9962 1104.39 29.8409 1103.77 29.8409C1103.13 29.8409 1102.63 29.9811 1102.26 30.2614C1101.9 30.5417 1101.64 30.8409 1101.5 31.1591L1100.22 30.7045C1100.45 30.1742 1100.75 29.7614 1101.13 29.4659C1101.52 29.1667 1101.93 28.9583 1102.38 28.8409C1102.84 28.7197 1103.29 28.6591 1103.72 28.6591C1104 28.6591 1104.33 28.6932 1104.69 28.7614C1105.06 28.8258 1105.41 28.9602 1105.75 29.1648C1106.1 29.3693 1106.38 29.678 1106.61 30.0909C1106.84 30.5038 1106.95 31.0568 1106.95 31.75V37.5H1105.61V36.3182H1105.54C1105.45 36.5076 1105.3 36.7102 1105.09 36.9261C1104.88 37.142 1104.59 37.3258 1104.24 37.4773C1103.89 37.6288 1103.46 37.7045 1102.95 37.7045ZM1103.16 36.5C1103.69 36.5 1104.13 36.3958 1104.5 36.1875C1104.86 35.9792 1105.14 35.7102 1105.33 35.3807C1105.52 35.0511 1105.61 34.7045 1105.61 34.3409V33.1136C1105.55 33.1818 1105.43 33.2443 1105.24 33.3011C1105.05 33.3542 1104.83 33.4015 1104.58 33.4432C1104.33 33.4811 1104.09 33.5152 1103.86 33.5455C1103.62 33.572 1103.44 33.5947 1103.29 33.6136C1102.94 33.6591 1102.62 33.733 1102.32 33.8352C1102.02 33.9337 1101.77 34.0833 1101.59 34.2841C1101.41 34.4811 1101.32 34.75 1101.32 35.0909C1101.32 35.5568 1101.49 35.9091 1101.83 36.1477C1102.18 36.3826 1102.62 36.5 1103.16 36.5ZM1115.88 25.5L1116.56 26.3182C1116.29 26.5758 1115.99 26.7557 1115.64 26.858C1115.29 26.9602 1114.9 27.0227 1114.46 27.0455C1114.02 27.0682 1113.53 27.0909 1112.99 27.1136C1112.38 27.1364 1111.88 27.2841 1111.48 27.5568C1111.09 27.8295 1110.78 28.2235 1110.56 28.7386C1110.35 29.2538 1110.21 29.8864 1110.15 30.6364H1110.26C1110.56 30.0909 1110.97 29.6894 1111.49 29.4318C1112.01 29.1742 1112.57 29.0455 1113.17 29.0455C1113.85 29.0455 1114.47 29.2045 1115.01 29.5227C1115.56 29.8409 1115.99 30.3125 1116.31 30.9375C1116.63 31.5625 1116.79 32.3333 1116.79 33.25C1116.79 34.1629 1116.62 34.9508 1116.3 35.6136C1115.97 36.2765 1115.52 36.7879 1114.94 37.1477C1114.36 37.5038 1113.68 37.6818 1112.9 37.6818C1112.12 37.6818 1111.44 37.4981 1110.85 37.1307C1110.26 36.7595 1109.8 36.2102 1109.48 35.483C1109.15 34.7519 1108.99 33.8485 1108.99 32.7727V31.8409C1108.99 29.8977 1109.32 28.4242 1109.98 27.4205C1110.64 26.4167 1111.64 25.8977 1112.97 25.8636C1113.44 25.8485 1113.86 25.8447 1114.22 25.8523C1114.59 25.8598 1114.91 25.8428 1115.18 25.8011C1115.46 25.7595 1115.69 25.6591 1115.88 25.5ZM1112.9 36.4773C1113.43 36.4773 1113.88 36.3447 1114.26 36.0795C1114.64 35.8144 1114.93 35.4413 1115.14 34.9602C1115.34 34.4754 1115.44 33.9053 1115.44 33.25C1115.44 32.6136 1115.34 32.072 1115.13 31.625C1114.93 31.178 1114.63 30.8371 1114.25 30.6023C1113.87 30.3674 1113.41 30.25 1112.88 30.25C1112.49 30.25 1112.14 30.3163 1111.83 30.4489C1111.51 30.5814 1111.25 30.7765 1111.03 31.0341C1110.81 31.2917 1110.64 31.6061 1110.52 31.9773C1110.4 32.3485 1110.34 32.7727 1110.33 33.25C1110.33 34.2273 1110.56 35.0095 1111.02 35.5966C1111.48 36.1837 1112.1 36.4773 1112.9 36.4773ZM1122.38 37.6818C1121.59 37.6818 1120.9 37.4943 1120.31 37.1193C1119.72 36.7443 1119.26 36.2197 1118.92 35.5455C1118.59 34.8712 1118.43 34.0833 1118.43 33.1818C1118.43 32.2727 1118.59 31.4792 1118.92 30.8011C1119.26 30.1231 1119.72 29.5966 1120.31 29.2216C1120.9 28.8466 1121.59 28.6591 1122.38 28.6591C1123.17 28.6591 1123.86 28.8466 1124.45 29.2216C1125.04 29.5966 1125.51 30.1231 1125.84 30.8011C1126.17 31.4792 1126.34 32.2727 1126.34 33.1818C1126.34 34.0833 1126.17 34.8712 1125.84 35.5455C1125.51 36.2197 1125.04 36.7443 1124.45 37.1193C1123.86 37.4943 1123.17 37.6818 1122.38 37.6818ZM1122.38 36.4773C1122.98 36.4773 1123.47 36.3239 1123.86 36.017C1124.25 35.7102 1124.53 35.3068 1124.72 34.8068C1124.9 34.3068 1125 33.7652 1125 33.1818C1125 32.5985 1124.9 32.0549 1124.72 31.5511C1124.53 31.0473 1124.25 30.6402 1123.86 30.3295C1123.47 30.0189 1122.98 29.8636 1122.38 29.8636C1121.78 29.8636 1121.29 30.0189 1120.9 30.3295C1120.52 30.6402 1120.23 31.0473 1120.05 31.5511C1119.86 32.0549 1119.77 32.5985 1119.77 33.1818C1119.77 33.7652 1119.86 34.3068 1120.05 34.8068C1120.23 35.3068 1120.52 35.7102 1120.9 36.017C1121.29 36.3239 1121.78 36.4773 1122.38 36.4773ZM1127.24 30.0227V28.7727H1134.33V30.0227H1131.47V37.5H1130.13V30.0227H1127.24ZM1138.4 37.7045C1137.85 37.7045 1137.35 37.6004 1136.9 37.392C1136.45 37.1799 1136.09 36.875 1135.83 36.4773C1135.56 36.0758 1135.43 35.5909 1135.43 35.0227C1135.43 34.5227 1135.53 34.1174 1135.72 33.8068C1135.92 33.4924 1136.18 33.2462 1136.51 33.0682C1136.84 32.8902 1137.21 32.7576 1137.6 32.6705C1138.01 32.5795 1138.41 32.5076 1138.81 32.4545C1139.34 32.3864 1139.77 32.3352 1140.1 32.3011C1140.44 32.2633 1140.68 32.2008 1140.83 32.1136C1140.99 32.0265 1141.06 31.875 1141.06 31.6591V31.6136C1141.06 31.053 1140.91 30.6174 1140.6 30.3068C1140.3 29.9962 1139.84 29.8409 1139.22 29.8409C1138.58 29.8409 1138.08 29.9811 1137.72 30.2614C1137.35 30.5417 1137.1 30.8409 1136.95 31.1591L1135.68 30.7045C1135.9 30.1742 1136.21 29.7614 1136.59 29.4659C1136.97 29.1667 1137.39 28.9583 1137.84 28.8409C1138.29 28.7197 1138.74 28.6591 1139.18 28.6591C1139.46 28.6591 1139.78 28.6932 1140.14 28.7614C1140.51 28.8258 1140.87 28.9602 1141.21 29.1648C1141.55 29.3693 1141.84 29.678 1142.06 30.0909C1142.29 30.5038 1142.4 31.0568 1142.4 31.75V37.5H1141.06V36.3182H1141C1140.9 36.5076 1140.75 36.7102 1140.54 36.9261C1140.33 37.142 1140.05 37.3258 1139.69 37.4773C1139.34 37.6288 1138.91 37.7045 1138.4 37.7045ZM1138.61 36.5C1139.14 36.5 1139.59 36.3958 1139.95 36.1875C1140.32 35.9792 1140.59 35.7102 1140.78 35.3807C1140.97 35.0511 1141.06 34.7045 1141.06 34.3409V33.1136C1141.01 33.1818 1140.88 33.2443 1140.69 33.3011C1140.5 33.3542 1140.28 33.4015 1140.03 33.4432C1139.78 33.4811 1139.54 33.5152 1139.31 33.5455C1139.08 33.572 1138.89 33.5947 1138.75 33.6136C1138.4 33.6591 1138.07 33.733 1137.77 33.8352C1137.47 33.9337 1137.23 34.0833 1137.04 34.2841C1136.86 34.4811 1136.77 34.75 1136.77 35.0909C1136.77 35.5568 1136.94 35.9091 1137.29 36.1477C1137.63 36.3826 1138.08 36.5 1138.61 36.5ZM1148.51 37.6818C1147.67 37.6818 1146.95 37.4962 1146.34 37.125C1145.73 36.75 1145.26 36.2273 1144.93 35.5568C1144.61 34.8826 1144.44 34.0985 1144.44 33.2045C1144.44 32.3106 1144.61 31.5227 1144.93 30.8409C1145.26 30.1553 1145.72 29.6212 1146.31 29.2386C1146.9 28.8523 1147.59 28.6591 1148.38 28.6591C1148.83 28.6591 1149.28 28.7348 1149.72 28.8864C1150.16 29.0379 1150.57 29.2841 1150.93 29.625C1151.3 29.9621 1151.59 30.4091 1151.8 30.9659C1152.02 31.5227 1152.12 32.2083 1152.12 33.0227V33.5909H1145.4V32.4318H1150.76C1150.76 31.9394 1150.66 31.5 1150.47 31.1136C1150.27 30.7273 1150 30.4223 1149.64 30.1989C1149.28 29.9754 1148.86 29.8636 1148.38 29.8636C1147.84 29.8636 1147.38 29.9962 1146.99 30.2614C1146.6 30.5227 1146.3 30.8636 1146.1 31.2841C1145.89 31.7045 1145.78 32.1553 1145.78 32.6364V33.4091C1145.78 34.0682 1145.9 34.6269 1146.12 35.0852C1146.36 35.5398 1146.68 35.8864 1147.09 36.125C1147.49 36.3598 1147.97 36.4773 1148.51 36.4773C1148.86 36.4773 1149.18 36.428 1149.47 36.3295C1149.75 36.2273 1150 36.0758 1150.21 35.875C1150.42 35.6705 1150.58 35.4167 1150.69 35.1136L1151.99 35.4773C1151.85 35.9167 1151.62 36.303 1151.3 36.6364C1150.98 36.9659 1150.58 37.2235 1150.11 37.4091C1149.63 37.5909 1149.1 37.6818 1148.51 37.6818ZM1158.94 35.6818L1161.98 28.7727H1163.26L1159.48 37.5H1158.39L1154.69 28.7727H1155.94L1158.94 35.6818ZM1155.51 28.7727V37.5H1154.16V28.7727H1155.51ZM1162.37 37.5V28.7727H1163.71V37.5H1162.37ZM1174.21 37.6818C1173.39 37.6818 1172.69 37.4886 1172.1 37.1023C1171.51 36.7159 1171.05 36.1837 1170.73 35.5057C1170.41 34.8277 1170.26 34.053 1170.26 33.1818C1170.26 32.2955 1170.42 31.5133 1170.74 30.8352C1171.07 30.1534 1171.53 29.6212 1172.12 29.2386C1172.71 28.8523 1173.4 28.6591 1174.19 28.6591C1174.8 28.6591 1175.35 28.7727 1175.85 29C1176.34 29.2273 1176.74 29.5455 1177.06 29.9545C1177.37 30.3636 1177.57 30.8409 1177.64 31.3864H1176.3C1176.2 30.9886 1175.97 30.6364 1175.62 30.3295C1175.27 30.0189 1174.8 29.8636 1174.21 29.8636C1173.69 29.8636 1173.23 30 1172.84 30.2727C1172.45 30.5417 1172.14 30.9223 1171.92 31.4148C1171.7 31.9034 1171.6 32.4773 1171.6 33.1364C1171.6 33.8106 1171.7 34.3977 1171.91 34.8977C1172.13 35.3977 1172.43 35.786 1172.82 36.0625C1173.22 36.339 1173.68 36.4773 1174.21 36.4773C1174.56 36.4773 1174.88 36.4167 1175.16 36.2955C1175.44 36.1742 1175.68 36 1175.88 35.7727C1176.08 35.5455 1176.22 35.2727 1176.3 34.9545H1177.64C1177.57 35.4697 1177.38 35.9337 1177.08 36.3466C1176.78 36.7557 1176.39 37.0814 1175.9 37.3239C1175.42 37.5625 1174.85 37.6818 1174.21 37.6818ZM1183.33 37.5V36.25H1183.65C1183.91 36.25 1184.13 36.1989 1184.3 36.0966C1184.48 35.9905 1184.62 35.8068 1184.72 35.5455C1184.83 35.2803 1184.91 34.9129 1184.97 34.4432C1185.03 33.9697 1185.08 33.3674 1185.1 32.6364L1185.26 28.7727H1191.08V37.5H1189.74V30.0227H1186.53L1186.4 33.1364C1186.37 33.8523 1186.3 34.483 1186.2 35.0284C1186.11 35.5701 1185.96 36.0246 1185.77 36.392C1185.57 36.7595 1185.32 37.036 1184.99 37.2216C1184.67 37.4072 1184.27 37.5 1183.78 37.5H1183.33ZM1197.72 32.5909V33.8409H1193.11V32.5909H1197.72ZM1194.24 28.7727V37.5H1192.9V28.7727H1194.24ZM1200.4 37.6818C1199.62 37.6818 1198.92 37.4943 1198.33 37.1193C1197.74 36.7443 1197.28 36.2197 1196.94 35.5455C1196.61 34.8712 1196.45 34.0833 1196.45 33.1818C1196.45 32.2727 1196.61 31.4792 1196.94 30.8011C1197.28 30.1231 1197.74 29.5966 1198.33 29.2216C1198.92 28.8466 1199.62 28.6591 1200.4 28.6591C1201.19 28.6591 1201.88 28.8466 1202.47 29.2216C1203.07 29.5966 1203.53 30.1231 1203.86 30.8011C1204.19 31.4792 1204.36 32.2727 1204.36 33.1818C1204.36 34.0833 1204.19 34.8712 1203.86 35.5455C1203.53 36.2197 1203.07 36.7443 1202.47 37.1193C1201.88 37.4943 1201.19 37.6818 1200.4 37.6818ZM1200.4 36.4773C1201 36.4773 1201.49 36.3239 1201.88 36.017C1202.27 35.7102 1202.55 35.3068 1202.74 34.8068C1202.92 34.3068 1203.02 33.7652 1203.02 33.1818C1203.02 32.5985 1202.92 32.0549 1202.74 31.5511C1202.55 31.0473 1202.27 30.6402 1201.88 30.3295C1201.49 30.0189 1201 29.8636 1200.4 29.8636C1199.8 29.8636 1199.31 30.0189 1198.93 30.3295C1198.54 30.6402 1198.25 31.0473 1198.07 31.5511C1197.88 32.0549 1197.79 32.5985 1197.79 33.1818C1197.79 33.7652 1197.88 34.3068 1198.07 34.8068C1198.25 35.3068 1198.54 35.7102 1198.93 36.017C1199.31 36.3239 1199.8 36.4773 1200.4 36.4773ZM1206.54 37.5V28.7727H1207.88V32.5682H1208.77L1211.9 28.7727H1213.63L1210.11 32.9773L1213.68 37.5H1211.95L1209.09 33.8182H1207.88V37.5H1206.54ZM1218.32 37.6818C1217.5 37.6818 1216.8 37.4886 1216.21 37.1023C1215.62 36.7159 1215.16 36.1837 1214.84 35.5057C1214.52 34.8277 1214.37 34.053 1214.37 33.1818C1214.37 32.2955 1214.53 31.5133 1214.85 30.8352C1215.18 30.1534 1215.64 29.6212 1216.23 29.2386C1216.82 28.8523 1217.51 28.6591 1218.3 28.6591C1218.91 28.6591 1219.46 28.7727 1219.96 29C1220.45 29.2273 1220.85 29.5455 1221.17 29.9545C1221.48 30.3636 1221.68 30.8409 1221.75 31.3864H1220.41C1220.31 30.9886 1220.08 30.6364 1219.73 30.3295C1219.38 30.0189 1218.91 29.8636 1218.32 29.8636C1217.8 29.8636 1217.34 30 1216.94 30.2727C1216.55 30.5417 1216.25 30.9223 1216.03 31.4148C1215.81 31.9034 1215.71 32.4773 1215.71 33.1364C1215.71 33.8106 1215.81 34.3977 1216.02 34.8977C1216.24 35.3977 1216.54 35.786 1216.93 36.0625C1217.33 36.339 1217.79 36.4773 1218.32 36.4773C1218.67 36.4773 1218.98 36.4167 1219.27 36.2955C1219.55 36.1742 1219.79 36 1219.99 35.7727C1220.19 35.5455 1220.33 35.2727 1220.41 34.9545H1221.75C1221.68 35.4697 1221.49 35.9337 1221.19 36.3466C1220.89 36.7557 1220.5 37.0814 1220.01 37.3239C1219.53 37.5625 1218.96 37.6818 1218.32 37.6818ZM1227.26 37.6818C1226.47 37.6818 1225.78 37.4943 1225.18 37.1193C1224.59 36.7443 1224.13 36.2197 1223.8 35.5455C1223.47 34.8712 1223.3 34.0833 1223.3 33.1818C1223.3 32.2727 1223.47 31.4792 1223.8 30.8011C1224.13 30.1231 1224.59 29.5966 1225.18 29.2216C1225.78 28.8466 1226.47 28.6591 1227.26 28.6591C1228.04 28.6591 1228.73 28.8466 1229.33 29.2216C1229.92 29.5966 1230.38 30.1231 1230.71 30.8011C1231.04 31.4792 1231.21 32.2727 1231.21 33.1818C1231.21 34.0833 1231.04 34.8712 1230.71 35.5455C1230.38 36.2197 1229.92 36.7443 1229.33 37.1193C1228.73 37.4943 1228.04 37.6818 1227.26 37.6818ZM1227.26 36.4773C1227.86 36.4773 1228.35 36.3239 1228.73 36.017C1229.12 35.7102 1229.41 35.3068 1229.59 34.8068C1229.78 34.3068 1229.87 33.7652 1229.87 33.1818C1229.87 32.5985 1229.78 32.0549 1229.59 31.5511C1229.41 31.0473 1229.12 30.6402 1228.73 30.3295C1228.35 30.0189 1227.86 29.8636 1227.26 29.8636C1226.66 29.8636 1226.17 30.0189 1225.78 30.3295C1225.39 30.6402 1225.11 31.0473 1224.92 31.5511C1224.74 32.0549 1224.64 32.5985 1224.64 33.1818C1224.64 33.7652 1224.74 34.3068 1224.92 34.8068C1225.11 35.3068 1225.39 35.7102 1225.78 36.017C1226.17 36.3239 1226.66 36.4773 1227.26 36.4773ZM1233.26 37.5V28.7727H1236.83C1237.77 28.7727 1238.51 28.9848 1239.07 29.4091C1239.62 29.8333 1239.89 30.3939 1239.89 31.0909C1239.89 31.6212 1239.74 32.0322 1239.42 32.3239C1239.11 32.6117 1238.71 32.8068 1238.21 32.9091C1238.54 32.9545 1238.85 33.0682 1239.15 33.25C1239.46 33.4318 1239.71 33.6818 1239.91 34C1240.11 34.3144 1240.21 34.7008 1240.21 35.1591C1240.21 35.6061 1240.1 36.0057 1239.87 36.358C1239.64 36.7102 1239.32 36.9886 1238.89 37.1932C1238.47 37.3977 1237.96 37.5 1237.37 37.5H1233.26ZM1234.53 36.2727H1237.37C1237.83 36.2727 1238.2 36.1629 1238.46 35.9432C1238.72 35.7235 1238.85 35.4242 1238.85 35.0455C1238.85 34.5947 1238.72 34.2405 1238.46 33.983C1238.2 33.7216 1237.83 33.5909 1237.37 33.5909H1234.53V36.2727ZM1234.53 32.4318H1236.83C1237.19 32.4318 1237.5 32.3826 1237.75 32.2841C1238.01 32.1818 1238.21 32.0379 1238.34 31.8523C1238.48 31.6629 1238.55 31.4394 1238.55 31.1818C1238.55 30.8144 1238.4 30.5265 1238.09 30.3182C1237.79 30.1061 1237.36 30 1236.83 30H1234.53V32.4318ZM1243.4 31.9318H1245.9C1246.92 31.9318 1247.71 32.1913 1248.25 32.7102C1248.79 33.2292 1249.06 33.8864 1249.06 34.6818C1249.06 35.2045 1248.94 35.6799 1248.7 36.108C1248.46 36.5322 1248.1 36.8712 1247.63 37.125C1247.16 37.375 1246.58 37.5 1245.9 37.5H1242.24V28.7727H1243.58V36.25H1245.9C1246.43 36.25 1246.87 36.1098 1247.21 35.8295C1247.55 35.5492 1247.72 35.1894 1247.72 34.75C1247.72 34.2879 1247.55 33.911 1247.21 33.6193C1246.87 33.3277 1246.43 33.1818 1245.9 33.1818H1243.4V31.9318ZM1250.45 37.5V28.7727H1251.79V37.5H1250.45ZM1259.02 35.6818L1262.06 28.7727H1263.33L1259.56 37.5H1258.47L1254.77 28.7727H1256.02L1259.02 35.6818ZM1255.58 28.7727V37.5H1254.24V28.7727H1255.58ZM1262.45 37.5V28.7727H1263.79V37.5H1262.45ZM1267.58 35.5227L1271.79 28.7727H1273.33V37.5H1271.99V30.75L1267.81 37.5H1266.24V28.7727H1267.58V35.5227ZM1286.77 25.5L1287.45 26.3182C1287.18 26.5758 1286.88 26.7557 1286.53 26.858C1286.18 26.9602 1285.79 27.0227 1285.35 27.0455C1284.91 27.0682 1284.42 27.0909 1283.88 27.1136C1283.27 27.1364 1282.77 27.2841 1282.38 27.5568C1281.98 27.8295 1281.67 28.2235 1281.45 28.7386C1281.24 29.2538 1281.1 29.8864 1281.04 30.6364H1281.15C1281.45 30.0909 1281.86 29.6894 1282.38 29.4318C1282.9 29.1742 1283.46 29.0455 1284.06 29.0455C1284.74 29.0455 1285.36 29.2045 1285.9 29.5227C1286.45 29.8409 1286.88 30.3125 1287.2 30.9375C1287.52 31.5625 1287.68 32.3333 1287.68 33.25C1287.68 34.1629 1287.51 34.9508 1287.19 35.6136C1286.87 36.2765 1286.41 36.7879 1285.83 37.1477C1285.25 37.5038 1284.57 37.6818 1283.79 37.6818C1283.01 37.6818 1282.33 37.4981 1281.74 37.1307C1281.15 36.7595 1280.7 36.2102 1280.37 35.483C1280.04 34.7519 1279.88 33.8485 1279.88 32.7727V31.8409C1279.88 29.8977 1280.21 28.4242 1280.87 27.4205C1281.53 26.4167 1282.53 25.8977 1283.86 25.8636C1284.33 25.8485 1284.75 25.8447 1285.11 25.8523C1285.48 25.8598 1285.8 25.8428 1286.07 25.8011C1286.35 25.7595 1286.58 25.6591 1286.77 25.5ZM1283.79 36.4773C1284.32 36.4773 1284.77 36.3447 1285.15 36.0795C1285.53 35.8144 1285.82 35.4413 1286.03 34.9602C1286.23 34.4754 1286.34 33.9053 1286.34 33.25C1286.34 32.6136 1286.23 32.072 1286.02 31.625C1285.82 31.178 1285.52 30.8371 1285.14 30.6023C1284.76 30.3674 1284.3 30.25 1283.77 30.25C1283.38 30.25 1283.03 30.3163 1282.72 30.4489C1282.41 30.5814 1282.14 30.7765 1281.92 31.0341C1281.7 31.2917 1281.53 31.6061 1281.41 31.9773C1281.29 32.3485 1281.23 32.7727 1281.22 33.25C1281.22 34.2273 1281.45 35.0095 1281.91 35.5966C1282.37 36.1837 1282.99 36.4773 1283.79 36.4773ZM1289.73 40.7727V28.7727H1291.02V30.1591H1291.18C1291.28 30.0076 1291.42 29.8144 1291.59 29.5795C1291.77 29.3409 1292.02 29.1288 1292.35 28.9432C1292.69 28.7538 1293.14 28.6591 1293.7 28.6591C1294.44 28.6591 1295.09 28.8428 1295.65 29.2102C1296.21 29.5777 1296.65 30.0985 1296.96 30.7727C1297.27 31.447 1297.43 32.2424 1297.43 33.1591C1297.43 34.0833 1297.27 34.8845 1296.96 35.5625C1296.65 36.2367 1296.21 36.7595 1295.65 37.1307C1295.1 37.4981 1294.45 37.6818 1293.73 37.6818C1293.17 37.6818 1292.72 37.589 1292.38 37.4034C1292.04 37.214 1291.78 37 1291.6 36.7614C1291.42 36.5189 1291.28 36.3182 1291.18 36.1591H1291.07V40.7727H1289.73ZM1291.05 33.1364C1291.05 33.7955 1291.14 34.3769 1291.34 34.8807C1291.53 35.3807 1291.81 35.7727 1292.18 36.0568C1292.55 36.3371 1293.01 36.4773 1293.55 36.4773C1294.11 36.4773 1294.57 36.3295 1294.95 36.0341C1295.33 35.7348 1295.61 35.3333 1295.8 34.8295C1295.99 34.322 1296.09 33.7576 1296.09 33.1364C1296.09 32.5227 1296 31.9697 1295.81 31.4773C1295.62 30.9811 1295.34 30.589 1294.96 30.3011C1294.59 30.0095 1294.11 29.8636 1293.55 29.8636C1293 29.8636 1292.54 30.0019 1292.17 30.2784C1291.8 30.5511 1291.52 30.9337 1291.33 31.4261C1291.14 31.9148 1291.05 32.4848 1291.05 33.1364ZM1303.14 37.6818C1302.3 37.6818 1301.57 37.4962 1300.96 37.125C1300.35 36.75 1299.89 36.2273 1299.56 35.5568C1299.23 34.8826 1299.07 34.0985 1299.07 33.2045C1299.07 32.3106 1299.23 31.5227 1299.56 30.8409C1299.89 30.1553 1300.34 29.6212 1300.93 29.2386C1301.52 28.8523 1302.21 28.6591 1303 28.6591C1303.45 28.6591 1303.9 28.7348 1304.35 28.8864C1304.79 29.0379 1305.19 29.2841 1305.56 29.625C1305.92 29.9621 1306.21 30.4091 1306.43 30.9659C1306.64 31.5227 1306.75 32.2083 1306.75 33.0227V33.5909H1300.02V32.4318H1305.39C1305.39 31.9394 1305.29 31.5 1305.09 31.1136C1304.9 30.7273 1304.62 30.4223 1304.26 30.1989C1303.91 29.9754 1303.48 29.8636 1303 29.8636C1302.47 29.8636 1302 29.9962 1301.61 30.2614C1301.23 30.5227 1300.93 30.8636 1300.72 31.2841C1300.51 31.7045 1300.41 32.1553 1300.41 32.6364V33.4091C1300.41 34.0682 1300.52 34.6269 1300.75 35.0852C1300.98 35.5398 1301.3 35.8864 1301.71 36.125C1302.12 36.3598 1302.59 36.4773 1303.14 36.4773C1303.49 36.4773 1303.81 36.428 1304.09 36.3295C1304.38 36.2273 1304.63 36.0758 1304.84 35.875C1305.04 35.6705 1305.2 35.4167 1305.32 35.1136L1306.61 35.4773C1306.48 35.9167 1306.25 36.303 1305.93 36.6364C1305.6 36.9659 1305.21 37.2235 1304.73 37.4091C1304.26 37.5909 1303.73 37.6818 1303.14 37.6818ZM1314.63 32.5227V33.7727H1309.81V32.5227H1314.63ZM1310.13 28.7727V37.5H1308.79V28.7727H1310.13ZM1315.65 28.7727V37.5H1314.31V28.7727H1315.65ZM1317.17 40V36.25H1317.9C1318.08 36.0644 1318.23 35.8636 1318.36 35.6477C1318.49 35.4318 1318.6 35.1761 1318.69 34.8807C1318.79 34.5814 1318.88 34.2178 1318.94 33.7898C1319.01 33.358 1319.07 32.8371 1319.12 32.2273L1319.42 28.7727H1324.97V36.25H1326.31V40H1324.97V37.5H1318.51V40H1317.17ZM1319.42 36.25H1323.62V30.0227H1320.67L1320.44 32.2273C1320.35 33.1402 1320.23 33.9375 1320.09 34.6193C1319.95 35.3011 1319.73 35.8447 1319.42 36.25ZM1330.65 37.7045C1330.1 37.7045 1329.6 37.6004 1329.15 37.392C1328.7 37.1799 1328.34 36.875 1328.08 36.4773C1327.81 36.0758 1327.68 35.5909 1327.68 35.0227C1327.68 34.5227 1327.78 34.1174 1327.97 33.8068C1328.17 33.4924 1328.43 33.2462 1328.76 33.0682C1329.09 32.8902 1329.46 32.7576 1329.85 32.6705C1330.26 32.5795 1330.66 32.5076 1331.06 32.4545C1331.59 32.3864 1332.02 32.3352 1332.35 32.3011C1332.69 32.2633 1332.93 32.2008 1333.08 32.1136C1333.24 32.0265 1333.31 31.875 1333.31 31.6591V31.6136C1333.31 31.053 1333.16 30.6174 1332.85 30.3068C1332.55 29.9962 1332.09 29.8409 1331.47 29.8409C1330.83 29.8409 1330.33 29.9811 1329.97 30.2614C1329.6 30.5417 1329.35 30.8409 1329.2 31.1591L1327.93 30.7045C1328.15 30.1742 1328.46 29.7614 1328.84 29.4659C1329.22 29.1667 1329.64 28.9583 1330.09 28.8409C1330.54 28.7197 1330.99 28.6591 1331.43 28.6591C1331.71 28.6591 1332.03 28.6932 1332.39 28.7614C1332.76 28.8258 1333.12 28.9602 1333.46 29.1648C1333.8 29.3693 1334.09 29.678 1334.31 30.0909C1334.54 30.5038 1334.65 31.0568 1334.65 31.75V37.5H1333.31V36.3182H1333.25C1333.15 36.5076 1333 36.7102 1332.79 36.9261C1332.58 37.142 1332.3 37.3258 1331.94 37.4773C1331.59 37.6288 1331.16 37.7045 1330.65 37.7045ZM1330.86 36.5C1331.39 36.5 1331.84 36.3958 1332.2 36.1875C1332.57 35.9792 1332.84 35.7102 1333.03 35.3807C1333.22 35.0511 1333.31 34.7045 1333.31 34.3409V33.1136C1333.26 33.1818 1333.13 33.2443 1332.94 33.3011C1332.75 33.3542 1332.53 33.4015 1332.28 33.4432C1332.03 33.4811 1331.79 33.5152 1331.56 33.5455C1331.33 33.572 1331.14 33.5947 1331 33.6136C1330.65 33.6591 1330.32 33.733 1330.02 33.8352C1329.72 33.9337 1329.48 34.0833 1329.29 34.2841C1329.11 34.4811 1329.02 34.75 1329.02 35.0909C1329.02 35.5568 1329.19 35.9091 1329.54 36.1477C1329.88 36.3826 1330.33 36.5 1330.86 36.5ZM1341.88 35.6818L1344.92 28.7727H1346.19L1342.42 37.5H1341.33L1337.62 28.7727H1338.88L1341.88 35.6818ZM1338.44 28.7727V37.5H1337.1V28.7727H1338.44ZM1345.31 37.5V28.7727H1346.65V37.5H1345.31ZM1350.44 35.5227L1354.65 28.7727H1356.19V37.5H1354.85V30.75L1350.67 37.5H1349.1V28.7727H1350.44V35.5227Z" fill="white"/>
<path d="M1556.49 23.5128C1556.16 23.1845 1555.71 23 1555.25 23C1554.78 23 1554.34 23.1845 1554.01 23.5128L1544.88 33.6803C1545.88 33.8835 1546.88 34.8604 1547.01 35.8105L1556.49 25.9891C1556.82 25.6607 1557 25.2153 1557 24.7509C1557 24.2866 1556.82 23.8412 1556.49 23.5128ZM1542.89 35.4646C1541.6 35.4646 1540.56 36.5241 1540.56 37.837C1540.56 38.8728 1539.65 39.4185 1539 39.4185C1539.72 40.3833 1540.94 41 1542.11 41C1543.83 41 1545.23 39.5846 1545.23 37.837C1545.23 36.5241 1544.18 35.4646 1542.89 35.4646Z" stroke="white" stroke-linecap="round" stroke-linejoin="round"/>
<path d="M1573.41 37.5V25.8636H1577.34C1578.25 25.8636 1579 26.0284 1579.58 26.358C1580.16 26.6837 1580.59 27.125 1580.88 27.6818C1581.16 28.2386 1581.3 28.8598 1581.3 29.5455C1581.3 30.2311 1581.16 30.8542 1580.88 31.4148C1580.6 31.9754 1580.17 32.4223 1579.59 32.7557C1579.01 33.0852 1578.27 33.25 1577.36 33.25H1574.55V32H1577.32C1577.94 32 1578.45 31.892 1578.82 31.6761C1579.2 31.4602 1579.48 31.1686 1579.65 30.8011C1579.82 30.4299 1579.91 30.0114 1579.91 29.5455C1579.91 29.0795 1579.82 28.6629 1579.65 28.2955C1579.48 27.928 1579.2 27.6402 1578.82 27.4318C1578.44 27.2197 1577.93 27.1136 1577.3 27.1136H1574.82V37.5H1573.41ZM1586.95 37.6818C1586.11 37.6818 1585.38 37.4962 1584.77 37.125C1584.17 36.75 1583.7 36.2273 1583.37 35.5568C1583.04 34.8826 1582.88 34.0985 1582.88 33.2045C1582.88 32.3106 1583.04 31.5227 1583.37 30.8409C1583.7 30.1553 1584.16 29.6212 1584.74 29.2386C1585.34 28.8523 1586.02 28.6591 1586.81 28.6591C1587.27 28.6591 1587.72 28.7348 1588.16 28.8864C1588.6 29.0379 1589.01 29.2841 1589.37 29.625C1589.73 29.9621 1590.02 30.4091 1590.24 30.9659C1590.45 31.5227 1590.56 32.2083 1590.56 33.0227V33.5909H1583.84V32.4318H1589.2C1589.2 31.9394 1589.1 31.5 1588.9 31.1136C1588.71 30.7273 1588.43 30.4223 1588.07 30.1989C1587.72 29.9754 1587.3 29.8636 1586.81 29.8636C1586.28 29.8636 1585.82 29.9962 1585.43 30.2614C1585.04 30.5227 1584.74 30.8636 1584.53 31.2841C1584.33 31.7045 1584.22 32.1553 1584.22 32.6364V33.4091C1584.22 34.0682 1584.34 34.6269 1584.56 35.0852C1584.79 35.5398 1585.11 35.8864 1585.52 36.125C1585.93 36.3598 1586.41 36.4773 1586.95 36.4773C1587.3 36.4773 1587.62 36.428 1587.9 36.3295C1588.19 36.2273 1588.44 36.0758 1588.65 35.875C1588.86 35.6705 1589.02 35.4167 1589.13 35.1136L1590.43 35.4773C1590.29 35.9167 1590.06 36.303 1589.74 36.6364C1589.42 36.9659 1589.02 37.2235 1588.55 37.4091C1588.07 37.5909 1587.54 37.6818 1586.95 37.6818ZM1596.15 37.6818C1595.33 37.6818 1594.63 37.4886 1594.03 37.1023C1593.44 36.7159 1592.99 36.1837 1592.67 35.5057C1592.35 34.8277 1592.19 34.053 1592.19 33.1818C1592.19 32.2955 1592.36 31.5133 1592.68 30.8352C1593.01 30.1534 1593.47 29.6212 1594.06 29.2386C1594.65 28.8523 1595.34 28.6591 1596.12 28.6591C1596.74 28.6591 1597.29 28.7727 1597.78 29C1598.28 29.2273 1598.68 29.5455 1598.99 29.9545C1599.31 30.3636 1599.5 30.8409 1599.58 31.3864H1598.24C1598.14 30.9886 1597.91 30.6364 1597.56 30.3295C1597.21 30.0189 1596.74 29.8636 1596.15 29.8636C1595.63 29.8636 1595.17 30 1594.77 30.2727C1594.38 30.5417 1594.08 30.9223 1593.86 31.4148C1593.64 31.9034 1593.53 32.4773 1593.53 33.1364C1593.53 33.8106 1593.64 34.3977 1593.85 34.8977C1594.07 35.3977 1594.37 35.786 1594.76 36.0625C1595.16 36.339 1595.62 36.4773 1596.15 36.4773C1596.5 36.4773 1596.81 36.4167 1597.1 36.2955C1597.38 36.1742 1597.62 36 1597.82 35.7727C1598.02 35.5455 1598.16 35.2727 1598.24 34.9545H1599.58C1599.5 35.4697 1599.32 35.9337 1599.02 36.3466C1598.72 36.7557 1598.33 37.0814 1597.84 37.3239C1597.36 37.5625 1596.79 37.6818 1596.15 37.6818ZM1600.85 30.0227V28.7727H1607.94V30.0227H1605.08V37.5H1603.74V30.0227H1600.85ZM1612.01 37.7045C1611.46 37.7045 1610.96 37.6004 1610.51 37.392C1610.06 37.1799 1609.7 36.875 1609.43 36.4773C1609.17 36.0758 1609.04 35.5909 1609.04 35.0227C1609.04 34.5227 1609.14 34.1174 1609.33 33.8068C1609.53 33.4924 1609.79 33.2462 1610.12 33.0682C1610.45 32.8902 1610.82 32.7576 1611.21 32.6705C1611.61 32.5795 1612.02 32.5076 1612.42 32.4545C1612.95 32.3864 1613.38 32.3352 1613.71 32.3011C1614.05 32.2633 1614.29 32.2008 1614.44 32.1136C1614.6 32.0265 1614.67 31.875 1614.67 31.6591V31.6136C1614.67 31.053 1614.52 30.6174 1614.21 30.3068C1613.91 29.9962 1613.45 29.8409 1612.83 29.8409C1612.19 29.8409 1611.69 29.9811 1611.33 30.2614C1610.96 30.5417 1610.71 30.8409 1610.56 31.1591L1609.29 30.7045C1609.51 30.1742 1609.82 29.7614 1610.2 29.4659C1610.58 29.1667 1611 28.9583 1611.45 28.8409C1611.9 28.7197 1612.35 28.6591 1612.79 28.6591C1613.07 28.6591 1613.39 28.6932 1613.75 28.7614C1614.12 28.8258 1614.47 28.9602 1614.82 29.1648C1615.16 29.3693 1615.45 29.678 1615.67 30.0909C1615.9 30.5038 1616.01 31.0568 1616.01 31.75V37.5H1614.67V36.3182H1614.61C1614.51 36.5076 1614.36 36.7102 1614.15 36.9261C1613.94 37.142 1613.66 37.3258 1613.3 37.4773C1612.95 37.6288 1612.52 37.7045 1612.01 37.7045ZM1612.22 36.5C1612.75 36.5 1613.2 36.3958 1613.56 36.1875C1613.93 35.9792 1614.2 35.7102 1614.39 35.3807C1614.58 35.0511 1614.67 34.7045 1614.67 34.3409V33.1136C1614.62 33.1818 1614.49 33.2443 1614.3 33.3011C1614.11 33.3542 1613.89 33.4015 1613.64 33.4432C1613.39 33.4811 1613.15 33.5152 1612.92 33.5455C1612.69 33.572 1612.5 33.5947 1612.36 33.6136C1612.01 33.6591 1611.68 33.733 1611.38 33.8352C1611.08 33.9337 1610.84 34.0833 1610.65 34.2841C1610.47 34.4811 1610.38 34.75 1610.38 35.0909C1610.38 35.5568 1610.55 35.9091 1610.89 36.1477C1611.24 36.3826 1611.68 36.5 1612.22 36.5ZM1618.46 37.5V28.7727H1622.03C1622.97 28.7727 1623.72 28.9848 1624.27 29.4091C1624.82 29.8333 1625.1 30.3939 1625.1 31.0909C1625.1 31.6212 1624.94 32.0322 1624.63 32.3239C1624.31 32.6117 1623.91 32.8068 1623.42 32.9091C1623.74 32.9545 1624.05 33.0682 1624.35 33.25C1624.66 33.4318 1624.91 33.6818 1625.12 34C1625.32 34.3144 1625.42 34.7008 1625.42 35.1591C1625.42 35.6061 1625.3 36.0057 1625.08 36.358C1624.85 36.7102 1624.52 36.9886 1624.1 37.1932C1623.67 37.3977 1623.17 37.5 1622.58 37.5H1618.46ZM1619.73 36.2727H1622.58C1623.04 36.2727 1623.4 36.1629 1623.66 35.9432C1623.92 35.7235 1624.05 35.4242 1624.05 35.0455C1624.05 34.5947 1623.92 34.2405 1623.66 33.983C1623.4 33.7216 1623.04 33.5909 1622.58 33.5909H1619.73V36.2727ZM1619.73 32.4318H1622.03C1622.39 32.4318 1622.7 32.3826 1622.96 32.2841C1623.21 32.1818 1623.41 32.0379 1623.55 31.8523C1623.69 31.6629 1623.76 31.4394 1623.76 31.1818C1623.76 30.8144 1623.6 30.5265 1623.3 30.3182C1622.99 30.1061 1622.57 30 1622.03 30H1619.73V32.4318ZM1627.45 40.7727V28.7727H1628.74V30.1591H1628.9C1629 30.0076 1629.14 29.8144 1629.31 29.5795C1629.49 29.3409 1629.74 29.1288 1630.07 28.9432C1630.4 28.7538 1630.86 28.6591 1631.42 28.6591C1632.16 28.6591 1632.81 28.8428 1633.37 29.2102C1633.93 29.5777 1634.36 30.0985 1634.68 30.7727C1634.99 31.447 1635.15 32.2424 1635.15 33.1591C1635.15 34.0833 1634.99 34.8845 1634.68 35.5625C1634.36 36.2367 1633.93 36.7595 1633.37 37.1307C1632.82 37.4981 1632.17 37.6818 1631.45 37.6818C1630.89 37.6818 1630.44 37.589 1630.1 37.4034C1629.76 37.214 1629.5 37 1629.32 36.7614C1629.14 36.5189 1629 36.3182 1628.9 36.1591H1628.79V40.7727H1627.45ZM1628.76 33.1364C1628.76 33.7955 1628.86 34.3769 1629.05 34.8807C1629.25 35.3807 1629.53 35.7727 1629.9 36.0568C1630.27 36.3371 1630.73 36.4773 1631.26 36.4773C1631.82 36.4773 1632.29 36.3295 1632.67 36.0341C1633.05 35.7348 1633.33 35.3333 1633.52 34.8295C1633.71 34.322 1633.81 33.7576 1633.81 33.1364C1633.81 32.5227 1633.71 31.9697 1633.53 31.4773C1633.34 30.9811 1633.06 30.589 1632.68 30.3011C1632.3 30.0095 1631.83 29.8636 1631.26 29.8636C1630.72 29.8636 1630.26 30.0019 1629.89 30.2784C1629.52 30.5511 1629.24 30.9337 1629.05 31.4261C1628.86 31.9148 1628.76 32.4848 1628.76 33.1364ZM1639.76 37.7045C1639.21 37.7045 1638.71 37.6004 1638.26 37.392C1637.81 37.1799 1637.45 36.875 1637.18 36.4773C1636.92 36.0758 1636.79 35.5909 1636.79 35.0227C1636.79 34.5227 1636.89 34.1174 1637.08 33.8068C1637.28 33.4924 1637.54 33.2462 1637.87 33.0682C1638.2 32.8902 1638.57 32.7576 1638.96 32.6705C1639.36 32.5795 1639.77 32.5076 1640.17 32.4545C1640.7 32.3864 1641.13 32.3352 1641.46 32.3011C1641.8 32.2633 1642.04 32.2008 1642.19 32.1136C1642.35 32.0265 1642.42 31.875 1642.42 31.6591V31.6136C1642.42 31.053 1642.27 30.6174 1641.96 30.3068C1641.66 29.9962 1641.2 29.8409 1640.58 29.8409C1639.94 29.8409 1639.44 29.9811 1639.08 30.2614C1638.71 30.5417 1638.46 30.8409 1638.31 31.1591L1637.04 30.7045C1637.26 30.1742 1637.57 29.7614 1637.95 29.4659C1638.33 29.1667 1638.75 28.9583 1639.2 28.8409C1639.65 28.7197 1640.1 28.6591 1640.54 28.6591C1640.82 28.6591 1641.14 28.6932 1641.5 28.7614C1641.87 28.8258 1642.22 28.9602 1642.57 29.1648C1642.91 29.3693 1643.2 29.678 1643.42 30.0909C1643.65 30.5038 1643.76 31.0568 1643.76 31.75V37.5H1642.42V36.3182H1642.36C1642.26 36.5076 1642.11 36.7102 1641.9 36.9261C1641.69 37.142 1641.41 37.3258 1641.05 37.4773C1640.7 37.6288 1640.27 37.7045 1639.76 37.7045ZM1639.97 36.5C1640.5 36.5 1640.95 36.3958 1641.31 36.1875C1641.68 35.9792 1641.95 35.7102 1642.14 35.3807C1642.33 35.0511 1642.42 34.7045 1642.42 34.3409V33.1136C1642.37 33.1818 1642.24 33.2443 1642.05 33.3011C1641.86 33.3542 1641.64 33.4015 1641.39 33.4432C1641.14 33.4811 1640.9 33.5152 1640.67 33.5455C1640.44 33.572 1640.25 33.5947 1640.11 33.6136C1639.76 33.6591 1639.43 33.733 1639.13 33.8352C1638.83 33.9337 1638.59 34.0833 1638.4 34.2841C1638.22 34.4811 1638.13 34.75 1638.13 35.0909C1638.13 35.5568 1638.3 35.9091 1638.64 36.1477C1638.99 36.3826 1639.43 36.5 1639.97 36.5ZM1653.08 28.7727V36.25H1654.3V40.3182H1652.96V37.5H1646.21V28.7727H1647.55V36.25H1651.73V28.7727H1653.08ZM1657.71 35.5227L1661.91 28.7727H1663.46V37.5H1662.12V30.75L1657.94 37.5H1656.37V28.7727H1657.71V35.5227ZM1671.16 37.5V30H1668.85C1668.32 30 1667.91 30.1212 1667.61 30.3636C1667.31 30.6061 1667.16 30.9394 1667.16 31.3636C1667.16 31.7803 1667.3 32.108 1667.57 32.3466C1667.84 32.5852 1668.21 32.7045 1668.69 32.7045H1671.51V33.9545H1668.69C1668.1 33.9545 1667.59 33.8504 1667.16 33.642C1666.73 33.4337 1666.4 33.1364 1666.17 32.75C1665.94 32.3598 1665.82 31.8977 1665.82 31.3636C1665.82 30.8258 1665.95 30.3636 1666.19 29.9773C1666.43 29.5909 1666.78 29.2936 1667.23 29.0852C1667.68 28.8769 1668.22 28.7727 1668.85 28.7727H1672.44V37.5H1671.16ZM1665.35 37.5L1667.82 33.1591H1669.28L1666.8 37.5H1665.35ZM1680.74 35.5227L1684.94 28.7727H1686.49V37.5H1685.15V30.75L1680.97 37.5H1679.4V28.7727H1680.74V35.5227ZM1699.99 28.7727C1699.92 28.197 1699.65 27.75 1699.16 27.4318C1698.68 27.1136 1698.08 26.9545 1697.38 26.9545C1696.86 26.9545 1696.41 27.0379 1696.03 27.2045C1695.64 27.3712 1695.34 27.6004 1695.13 27.892C1694.92 28.1837 1694.81 28.5152 1694.81 28.8864C1694.81 29.197 1694.88 29.464 1695.03 29.6875C1695.18 29.9072 1695.38 30.0909 1695.61 30.2386C1695.85 30.3826 1696.09 30.5019 1696.35 30.5966C1696.61 30.6875 1696.84 30.7614 1697.06 30.8182L1698.24 31.1364C1698.54 31.2159 1698.88 31.3258 1699.25 31.4659C1699.63 31.6061 1699.99 31.7973 1700.33 32.0398C1700.67 32.2784 1700.96 32.5852 1701.18 32.9602C1701.4 33.3352 1701.51 33.7955 1701.51 34.3409C1701.51 34.9697 1701.35 35.5379 1701.02 36.0455C1700.69 36.553 1700.22 36.9564 1699.59 37.2557C1698.96 37.5549 1698.2 37.7045 1697.31 37.7045C1696.48 37.7045 1695.75 37.5701 1695.14 37.3011C1694.54 37.0322 1694.06 36.6572 1693.71 36.1761C1693.37 35.6951 1693.17 35.1364 1693.13 34.5H1694.58C1694.62 34.9394 1694.77 35.303 1695.03 35.5909C1695.29 35.875 1695.62 36.0871 1696.01 36.2273C1696.42 36.3636 1696.85 36.4318 1697.31 36.4318C1697.85 36.4318 1698.33 36.3447 1698.76 36.1705C1699.19 35.9924 1699.53 35.7462 1699.78 35.4318C1700.03 35.1136 1700.15 34.7424 1700.15 34.3182C1700.15 33.9318 1700.04 33.6174 1699.83 33.375C1699.61 33.1326 1699.33 32.9356 1698.97 32.7841C1698.62 32.6326 1698.24 32.5 1697.83 32.3864L1696.4 31.9773C1695.49 31.7159 1694.77 31.3428 1694.24 30.858C1693.71 30.3731 1693.45 29.7386 1693.45 28.9545C1693.45 28.303 1693.62 27.7348 1693.97 27.25C1694.33 26.7614 1694.81 26.3826 1695.41 26.1136C1696.01 25.8409 1696.68 25.7045 1697.42 25.7045C1698.17 25.7045 1698.84 25.839 1699.42 26.108C1700.01 26.3731 1700.47 26.7367 1700.81 27.1989C1701.15 27.661 1701.34 28.1856 1701.36 28.7727H1699.99ZM1703.83 37.5V25.8636H1707.76C1708.68 25.8636 1709.42 26.0284 1710 26.358C1710.58 26.6837 1711.02 27.125 1711.3 27.6818C1711.58 28.2386 1711.72 28.8598 1711.72 29.5455C1711.72 30.2311 1711.58 30.8542 1711.3 31.4148C1711.02 31.9754 1710.59 32.4223 1710.01 32.7557C1709.43 33.0852 1708.69 33.25 1707.79 33.25H1704.97V32H1707.74C1708.37 32 1708.87 31.892 1709.25 31.6761C1709.62 31.4602 1709.9 31.1686 1710.07 30.8011C1710.24 30.4299 1710.33 30.0114 1710.33 29.5455C1710.33 29.0795 1710.24 28.6629 1710.07 28.2955C1709.9 27.928 1709.62 27.6402 1709.24 27.4318C1708.86 27.2197 1708.35 27.1136 1707.72 27.1136H1705.24V37.5H1703.83ZM1713.28 37.5H1711.8L1716.07 25.8636H1717.53L1721.8 37.5H1720.32L1716.85 27.7045H1716.75L1713.28 37.5ZM1713.82 32.9545H1719.78V34.2045H1713.82V32.9545ZM1731.48 37.6818C1730.66 37.6818 1729.95 37.4886 1729.36 37.1023C1728.77 36.7159 1728.32 36.1837 1728 35.5057C1727.68 34.8277 1727.52 34.053 1727.52 33.1818C1727.52 32.2955 1727.68 31.5133 1728.01 30.8352C1728.34 30.1534 1728.8 29.6212 1729.38 29.2386C1729.98 28.8523 1730.67 28.6591 1731.45 28.6591C1732.07 28.6591 1732.62 28.7727 1733.11 29C1733.6 29.2273 1734.01 29.5455 1734.32 29.9545C1734.64 30.3636 1734.83 30.8409 1734.91 31.3864H1733.57C1733.46 30.9886 1733.24 30.6364 1732.88 30.3295C1732.54 30.0189 1732.07 29.8636 1731.48 29.8636C1730.95 29.8636 1730.49 30 1730.1 30.2727C1729.71 30.5417 1729.41 30.9223 1729.19 31.4148C1728.97 31.9034 1728.86 32.4773 1728.86 33.1364C1728.86 33.8106 1728.97 34.3977 1729.18 34.8977C1729.4 35.3977 1729.7 35.786 1730.09 36.0625C1730.48 36.339 1730.95 36.4773 1731.48 36.4773C1731.82 36.4773 1732.14 36.4167 1732.42 36.2955C1732.71 36.1742 1732.95 36 1733.15 35.7727C1733.34 35.5455 1733.48 35.2727 1733.57 34.9545H1734.91C1734.83 35.4697 1734.64 35.9337 1734.35 36.3466C1734.05 36.7557 1733.66 37.0814 1733.17 37.3239C1732.68 37.5625 1732.12 37.6818 1731.48 37.6818ZM1737.73 40.7727C1737.5 40.7727 1737.3 40.7538 1737.12 40.7159C1736.95 40.6818 1736.82 40.6477 1736.75 40.6136L1737.1 39.4318C1737.42 39.5152 1737.71 39.5455 1737.96 39.5227C1738.21 39.5 1738.43 39.3883 1738.62 39.1875C1738.82 38.9905 1739 38.6705 1739.16 38.2273L1739.41 37.5455L1736.19 28.7727H1737.64L1740.05 35.7273H1740.14L1742.55 28.7727H1744L1740.3 38.7727C1740.13 39.2235 1739.93 39.5966 1739.68 39.892C1739.43 40.1913 1739.15 40.4129 1738.82 40.5568C1738.5 40.7008 1738.14 40.7727 1737.73 40.7727ZM1750.55 35.6818L1753.59 28.7727H1754.87L1751.09 37.5H1750L1746.3 28.7727H1747.55L1750.55 35.6818ZM1747.12 28.7727V37.5H1745.77V28.7727H1747.12ZM1753.98 37.5V28.7727H1755.32V37.5H1753.98ZM1761.32 37.6818C1760.53 37.6818 1759.84 37.4943 1759.25 37.1193C1758.65 36.7443 1758.19 36.2197 1757.86 35.5455C1757.53 34.8712 1757.37 34.0833 1757.37 33.1818C1757.37 32.2727 1757.53 31.4792 1757.86 30.8011C1758.19 30.1231 1758.65 29.5966 1759.25 29.2216C1759.84 28.8466 1760.53 28.6591 1761.32 28.6591C1762.11 28.6591 1762.8 28.8466 1763.39 29.2216C1763.98 29.5966 1764.44 30.1231 1764.77 30.8011C1765.11 31.4792 1765.27 32.2727 1765.27 33.1818C1765.27 34.0833 1765.11 34.8712 1764.77 35.5455C1764.44 36.2197 1763.98 36.7443 1763.39 37.1193C1762.8 37.4943 1762.11 37.6818 1761.32 37.6818ZM1761.32 36.4773C1761.92 36.4773 1762.41 36.3239 1762.8 36.017C1763.18 35.7102 1763.47 35.3068 1763.65 34.8068C1763.84 34.3068 1763.93 33.7652 1763.93 33.1818C1763.93 32.5985 1763.84 32.0549 1763.65 31.5511C1763.47 31.0473 1763.18 30.6402 1762.8 30.3295C1762.41 30.0189 1761.92 29.8636 1761.32 29.8636C1760.72 29.8636 1760.23 30.0189 1759.84 30.3295C1759.46 30.6402 1759.17 31.0473 1758.98 31.5511C1758.8 32.0549 1758.71 32.5985 1758.71 33.1818C1758.71 33.7652 1758.8 34.3068 1758.98 34.8068C1759.17 35.3068 1759.46 35.7102 1759.84 36.017C1760.23 36.3239 1760.72 36.4773 1761.32 36.4773ZM1767.32 37.5V28.7727H1768.66V32.5682H1769.55L1772.68 28.7727H1774.41L1770.89 32.9773L1774.46 37.5H1772.73L1769.87 33.8182H1768.66V37.5H1767.32ZM1789.96 29.5H1788.55C1788.47 29.0947 1788.32 28.7386 1788.11 28.4318C1787.91 28.125 1787.66 27.8674 1787.36 27.6591C1787.07 27.447 1786.75 27.2879 1786.39 27.1818C1786.04 27.0758 1785.66 27.0227 1785.28 27.0227C1784.57 27.0227 1783.94 27.2008 1783.36 27.5568C1782.8 27.9129 1782.34 28.4375 1782.01 29.1307C1781.67 29.8239 1781.51 30.6742 1781.51 31.6818C1781.51 32.6894 1781.67 33.5398 1782.01 34.233C1782.34 34.9261 1782.8 35.4508 1783.36 35.8068C1783.94 36.1629 1784.57 36.3409 1785.28 36.3409C1785.66 36.3409 1786.04 36.2879 1786.39 36.1818C1786.75 36.0758 1787.07 35.9186 1787.36 35.7102C1787.66 35.4981 1787.91 35.2386 1788.11 34.9318C1788.32 34.6212 1788.47 34.2652 1788.55 33.8636H1789.96C1789.85 34.4583 1789.66 34.9905 1789.38 35.4602C1789.1 35.9299 1788.75 36.3295 1788.34 36.6591C1787.92 36.9848 1787.45 37.233 1786.93 37.4034C1786.42 37.5739 1785.87 37.6591 1785.28 37.6591C1784.29 37.6591 1783.4 37.4167 1782.63 36.9318C1781.86 36.447 1781.25 35.7576 1780.81 34.8636C1780.36 33.9697 1780.14 32.9091 1780.14 31.6818C1780.14 30.4545 1780.36 29.3939 1780.81 28.5C1781.25 27.6061 1781.86 26.9167 1782.63 26.4318C1783.4 25.947 1784.29 25.7045 1785.28 25.7045C1785.87 25.7045 1786.42 25.7898 1786.93 25.9602C1787.45 26.1307 1787.92 26.3807 1788.34 26.7102C1788.75 27.036 1789.1 27.4337 1789.38 27.9034C1789.66 28.3693 1789.85 28.9015 1789.96 29.5ZM1793.4 32.25V37.5H1792.06V25.8636H1793.4V30.1364H1793.51C1793.71 29.6856 1794.02 29.3277 1794.43 29.0625C1794.84 28.7936 1795.39 28.6591 1796.08 28.6591C1796.67 28.6591 1797.19 28.7784 1797.64 29.017C1798.09 29.2519 1798.43 29.6136 1798.68 30.1023C1798.93 30.5871 1799.06 31.2045 1799.06 31.9545V37.5H1797.71V32.0455C1797.71 31.3523 1797.53 30.8163 1797.17 30.4375C1796.82 30.0549 1796.32 29.8636 1795.69 29.8636C1795.25 29.8636 1794.86 29.9564 1794.51 30.142C1794.17 30.3277 1793.89 30.5985 1793.69 30.9545C1793.49 31.3106 1793.4 31.7424 1793.4 32.25ZM1804.08 37.7045C1803.52 37.7045 1803.02 37.6004 1802.57 37.392C1802.12 37.1799 1801.76 36.875 1801.5 36.4773C1801.23 36.0758 1801.1 35.5909 1801.1 35.0227C1801.1 34.5227 1801.2 34.1174 1801.39 33.8068C1801.59 33.4924 1801.86 33.2462 1802.18 33.0682C1802.51 32.8902 1802.88 32.7576 1803.28 32.6705C1803.68 32.5795 1804.08 32.5076 1804.49 32.4545C1805.02 32.3864 1805.45 32.3352 1805.78 32.3011C1806.11 32.2633 1806.35 32.2008 1806.5 32.1136C1806.66 32.0265 1806.74 31.875 1806.74 31.6591V31.6136C1806.74 31.053 1806.58 30.6174 1806.28 30.3068C1805.97 29.9962 1805.51 29.8409 1804.89 29.8409C1804.25 29.8409 1803.75 29.9811 1803.39 30.2614C1803.03 30.5417 1802.77 30.8409 1802.62 31.1591L1801.35 30.7045C1801.58 30.1742 1801.88 29.7614 1802.26 29.4659C1802.64 29.1667 1803.06 28.9583 1803.51 28.8409C1803.96 28.7197 1804.41 28.6591 1804.85 28.6591C1805.13 28.6591 1805.45 28.6932 1805.82 28.7614C1806.18 28.8258 1806.54 28.9602 1806.88 29.1648C1807.22 29.3693 1807.51 29.678 1807.74 30.0909C1807.96 30.5038 1808.08 31.0568 1808.08 31.75V37.5H1806.74V36.3182H1806.67C1806.58 36.5076 1806.43 36.7102 1806.21 36.9261C1806 37.142 1805.72 37.3258 1805.37 37.4773C1805.01 37.6288 1804.58 37.7045 1804.08 37.7045ZM1804.28 36.5C1804.81 36.5 1805.26 36.3958 1805.62 36.1875C1805.99 35.9792 1806.27 35.7102 1806.45 35.3807C1806.64 35.0511 1806.74 34.7045 1806.74 34.3409V33.1136C1806.68 33.1818 1806.55 33.2443 1806.36 33.3011C1806.17 33.3542 1805.95 33.4015 1805.7 33.4432C1805.46 33.4811 1805.21 33.5152 1804.98 33.5455C1804.75 33.572 1804.56 33.5947 1804.42 33.6136C1804.07 33.6591 1803.74 33.733 1803.44 33.8352C1803.14 33.9337 1802.9 34.0833 1802.71 34.2841C1802.53 34.4811 1802.44 34.75 1802.44 35.0909C1802.44 35.5568 1802.61 35.9091 1802.96 36.1477C1803.31 36.3826 1803.75 36.5 1804.28 36.5ZM1811.87 32.25V37.5H1810.52V28.7727H1811.82V30.1364H1811.93C1812.14 29.6932 1812.45 29.3371 1812.87 29.0682C1813.28 28.7955 1813.82 28.6591 1814.48 28.6591C1815.07 28.6591 1815.59 28.7803 1816.03 29.0227C1816.47 29.2614 1816.82 29.625 1817.06 30.1136C1817.31 30.5985 1817.43 31.2121 1817.43 31.9545V37.5H1816.09V32.0455C1816.09 31.3598 1815.91 30.8258 1815.56 30.4432C1815.2 30.0568 1814.71 29.8636 1814.09 29.8636C1813.66 29.8636 1813.28 29.9564 1812.94 30.142C1812.61 30.3277 1812.35 30.5985 1812.15 30.9545C1811.96 31.3106 1811.87 31.7424 1811.87 32.25ZM1823.54 37.6818C1822.7 37.6818 1821.98 37.4962 1821.37 37.125C1820.76 36.75 1820.29 36.2273 1819.96 35.5568C1819.64 34.8826 1819.47 34.0985 1819.47 33.2045C1819.47 32.3106 1819.64 31.5227 1819.96 30.8409C1820.29 30.1553 1820.75 29.6212 1821.34 29.2386C1821.93 28.8523 1822.62 28.6591 1823.41 28.6591C1823.86 28.6591 1824.31 28.7348 1824.75 28.8864C1825.2 29.0379 1825.6 29.2841 1825.96 29.625C1826.33 29.9621 1826.62 30.4091 1826.83 30.9659C1827.05 31.5227 1827.16 32.2083 1827.16 33.0227V33.5909H1820.43V32.4318H1825.79C1825.79 31.9394 1825.69 31.5 1825.5 31.1136C1825.3 30.7273 1825.03 30.4223 1824.67 30.1989C1824.31 29.9754 1823.89 29.8636 1823.41 29.8636C1822.87 29.8636 1822.41 29.9962 1822.02 30.2614C1821.63 30.5227 1821.34 30.8636 1821.13 31.2841C1820.92 31.7045 1820.82 32.1553 1820.82 32.6364V33.4091C1820.82 34.0682 1820.93 34.6269 1821.16 35.0852C1821.39 35.5398 1821.71 35.8864 1822.12 36.125C1822.53 36.3598 1823 36.4773 1823.54 36.4773C1823.89 36.4773 1824.21 36.428 1824.5 36.3295C1824.79 36.2273 1825.03 36.0758 1825.24 35.875C1825.45 35.6705 1825.61 35.4167 1825.72 35.1136L1827.02 35.4773C1826.88 35.9167 1826.65 36.303 1826.33 36.6364C1826.01 36.9659 1825.61 37.2235 1825.14 37.4091C1824.67 37.5909 1824.13 37.6818 1823.54 37.6818ZM1830.54 25.8636V37.5H1829.2V25.8636H1830.54Z" fill="white"/>
</svg>
