<svg width="25" height="24" viewBox="0 0 25 24" fill="none" xmlns="http://www.w3.org/2000/svg">
<path d="M10.9197 3.00772C10.9485 3.00746 10.9774 3.0072 11.0072 3.00693C11.0385 3.00696 11.0698 3.00698 11.1021 3.00701C11.1354 3.00681 11.1686 3.0066 11.2029 3.00639C11.3129 3.00581 11.4228 3.00569 11.5328 3.00562C11.6093 3.00543 11.6859 3.00522 11.7624 3.00501C11.9228 3.00464 12.0832 3.00453 12.2437 3.00456C12.4287 3.0046 12.6137 3.00396 12.7987 3.00299C12.9771 3.00209 13.1555 3.00187 13.334 3.00191C13.4097 3.00184 13.4854 3.00157 13.5611 3.0011C13.6671 3.0005 13.773 3.00067 13.879 3.00104C13.9102 3.0007 13.9413 3.00035 13.9734 3C14.2115 3.0021 14.3763 3.05065 14.5463 3.22301C14.6197 3.33009 14.6739 3.43682 14.7274 3.55482C15.0521 4.23698 15.6109 4.71729 16.3062 4.98166C17.0295 5.23452 17.8224 5.23619 18.5426 4.98238C18.7622 4.906 18.9341 4.86323 19.1533 4.95563C19.4088 5.10253 19.579 5.38993 19.7568 5.62079C19.8508 5.74253 19.9471 5.86227 20.0438 5.98187C20.1802 6.15081 20.3146 6.32112 20.4473 6.49304C20.5518 6.62799 20.6586 6.76085 20.766 6.89344C20.9068 7.06774 21.0446 7.24413 21.18 7.42281C21.1962 7.44416 21.2125 7.46552 21.2292 7.48752C21.2731 7.54587 21.3165 7.60466 21.3596 7.6636C21.383 7.69478 21.4064 7.72596 21.4304 7.75808C21.5247 7.9251 21.5095 8.12559 21.4649 8.3093C21.3804 8.49203 21.1853 8.59292 21.0269 8.70322C19.987 9.46861 19.3918 10.6694 19.1287 11.9176C19.1227 11.946 19.1167 11.9744 19.1105 12.0036C19.0153 12.4798 18.9887 12.9486 18.9907 13.4331C18.9908 13.4613 18.9908 13.4896 18.9909 13.5187C18.9922 13.938 19.0072 14.3455 19.0909 14.7575C19.0987 14.7982 19.0987 14.7982 19.1066 14.8398C19.2915 15.7969 19.6691 16.6501 20.2614 17.4187C20.5618 17.8093 20.5618 17.8093 20.5429 18.0598C20.4841 18.3466 20.2766 18.4813 20.0484 18.635C20.0233 18.6521 19.9983 18.6692 19.9724 18.6867C19.8898 18.7429 19.807 18.7989 19.7243 18.8548C19.6665 18.894 19.6087 18.9332 19.551 18.9724C18.9928 19.3508 18.4317 19.7248 17.8697 20.0974C17.8472 20.1123 17.8248 20.1272 17.8016 20.1426C17.7691 20.1641 17.7691 20.1641 17.7359 20.1861C17.6887 20.2177 17.6418 20.2496 17.595 20.2817C17.5708 20.2982 17.5466 20.3148 17.5217 20.3319C17.4999 20.3469 17.4782 20.3619 17.4558 20.3774C17.3577 20.4387 17.2735 20.4503 17.1606 20.4524C17.1354 20.4532 17.1103 20.454 17.0844 20.4548C16.9189 20.4342 16.7958 20.3373 16.6671 20.2365C16.0493 19.7772 15.2984 19.6838 14.5534 19.7721C14.1359 19.837 13.7438 19.9731 13.4039 20.2307C13.3857 20.2438 13.3674 20.2568 13.3486 20.2703C13.1982 20.3871 13.1097 20.5359 13.0081 20.696C12.9084 20.8426 12.7913 20.9491 12.6174 20.9952C12.4401 21.0096 12.3217 20.9951 12.1637 20.9034C12.0704 20.8166 11.9993 20.7145 11.9277 20.6093C11.6087 20.1433 11.1637 19.9193 10.6209 19.8027C9.8724 19.6806 9.03789 19.7217 8.39373 20.1735C8.3128 20.2331 8.23392 20.2946 8.15547 20.3575C8.01053 20.4664 7.86072 20.4655 7.68671 20.4448C7.48831 20.3837 7.3235 20.25 7.1571 20.1291C6.87953 19.9294 6.59567 19.74 6.31058 19.5514C6.16452 19.4548 6.01871 19.3578 5.8729 19.2608C5.8442 19.2417 5.8155 19.2226 5.78594 19.2029C5.55503 19.0492 5.32457 18.8948 5.09539 18.7385C5.06007 18.7144 5.02472 18.6904 4.98932 18.6664C4.50607 18.3392 4.50607 18.3392 4.44998 18.0598C4.43936 17.8104 4.53924 17.6372 4.70049 17.4578C5.54168 16.4935 5.99193 15.0756 5.99887 13.8017C5.99919 13.7624 5.99919 13.7624 5.99951 13.7223C6.00662 12.9054 6.00662 12.9054 5.90197 12.0973C5.89596 12.067 5.88995 12.0366 5.88376 12.0054C5.70777 11.1451 5.40426 10.3239 4.87348 9.62053C4.84254 9.57908 4.84254 9.57908 4.81097 9.5368C4.53327 9.17959 4.21956 8.86777 3.84676 8.61412C3.57154 8.42439 3.57154 8.42439 3.51224 8.24456C3.47438 7.95448 3.52152 7.80087 3.69373 7.57187C3.75942 7.48686 3.82722 7.40395 3.89603 7.32152C3.93364 7.27593 3.97122 7.2303 4.00876 7.18464C4.03638 7.15104 4.03638 7.15104 4.06456 7.11677C4.13974 7.02441 4.21282 6.93049 4.2855 6.83611C4.40404 6.68232 4.52464 6.5304 4.6466 6.37937C4.76911 6.22763 4.89035 6.07507 5.0096 5.92071C5.13222 5.7621 5.25653 5.60496 5.38205 5.44868C5.398 5.42879 5.41395 5.40891 5.43038 5.38842C5.47643 5.33123 5.52276 5.27429 5.56922 5.21744C5.58523 5.19767 5.60124 5.17789 5.61774 5.15752C5.63347 5.13843 5.6492 5.11934 5.66541 5.09967C5.6794 5.08258 5.6934 5.06549 5.70782 5.04788C5.81397 4.93784 5.9421 4.90698 6.08891 4.90415C6.23892 4.90605 6.36216 4.94611 6.5013 4.99958C6.83299 5.1255 7.15732 5.16775 7.51089 5.16584C7.54371 5.16571 7.57653 5.16559 7.61034 5.16545C8.44152 5.15376 9.17607 4.84753 9.78152 4.27529C10.0205 4.02107 10.1915 3.72227 10.3405 3.40803C10.4603 3.1645 10.6392 3.00887 10.9197 3.00772ZM10.9592 4.57559C10.8638 4.73826 10.7207 4.86888 10.5907 5.0034C10.5691 5.02713 10.5475 5.05086 10.5252 5.07531C9.82972 5.82047 8.75335 6.2629 7.74946 6.296C7.37792 6.30326 7.01652 6.29606 6.65207 6.21896C6.61417 6.21135 6.57627 6.20374 6.53722 6.1959C6.50373 6.18703 6.50373 6.18703 6.46956 6.17797C6.39599 6.16245 6.33954 6.15494 6.26497 6.16533C6.17652 6.22783 6.11955 6.30858 6.057 6.39657C6.03891 6.42037 6.02082 6.44418 6.00218 6.4687C5.9653 6.51734 5.9288 6.56628 5.89268 6.6155C5.8343 6.69489 5.77403 6.77255 5.71323 6.85005C5.67292 6.90145 5.63299 6.95315 5.59309 7.00488C5.46679 7.16785 5.33681 7.32781 5.20741 7.48826C5.09515 7.62749 4.98411 7.76767 4.87348 7.90822C4.92051 8.03091 5.00621 8.10165 5.10224 8.18532C5.27815 8.34366 5.42525 8.5145 5.56922 8.70322C5.59379 8.73404 5.61836 8.76486 5.64367 8.79662C5.8345 9.03769 5.99466 9.29029 6.14397 9.55937C6.15614 9.58104 6.1683 9.60271 6.18084 9.62504C6.82847 10.7875 7.12655 12.1034 7.12142 13.4312C7.12136 13.4608 7.12131 13.4905 7.12125 13.5211C7.11988 13.9596 7.10572 14.3873 7.02122 14.8186C7.01587 14.8472 7.01051 14.8758 7.005 14.9052C6.81707 15.8937 6.4881 16.8689 5.92064 17.7035C5.86385 17.7818 5.86385 17.7818 5.87172 17.8763C5.92397 17.9254 5.92397 17.9254 5.99568 17.971C6.03775 17.9997 6.03775 17.9997 6.08068 18.029C6.14569 18.0721 6.21073 18.1152 6.2758 18.1582C6.31171 18.182 6.3476 18.2059 6.38349 18.2297C6.40237 18.2423 6.42125 18.2548 6.4407 18.2677C6.57894 18.3604 6.71223 18.4586 6.84473 18.5595C6.94644 18.6365 7.04942 18.7116 7.15258 18.7866C7.20337 18.8242 7.25359 18.8626 7.30319 18.9017C7.53481 19.0875 7.53481 19.0875 7.80771 19.1911C7.99895 19.1641 8.15608 19.0596 8.31549 18.9557C8.74224 18.7024 9.32151 18.631 9.8042 18.6102C9.84006 18.6083 9.84006 18.6083 9.87664 18.6063C10.7607 18.582 11.7752 18.8714 12.4292 19.4903C12.4414 19.5026 12.4536 19.5148 12.4662 19.5275C12.5805 19.4605 12.6864 19.3861 12.7933 19.3077C13.4086 18.8712 14.1376 18.6452 14.8862 18.6102C14.9091 18.6089 14.932 18.6076 14.9555 18.6063C15.7544 18.5841 16.4834 18.83 17.1852 19.1911C17.4196 19.0337 17.6539 18.8759 17.8879 18.7178C18.0282 18.623 18.1687 18.5286 18.3093 18.4343C18.4045 18.3705 18.4994 18.3064 18.5943 18.2422C18.6405 18.211 18.6869 18.1799 18.7333 18.149C18.7984 18.1055 18.8633 18.0616 18.9281 18.0176C18.9575 17.9982 18.9575 17.9982 18.9875 17.9783C19.0337 17.9467 19.0777 17.9117 19.1212 17.8763C19.1212 17.7527 19.0603 17.6849 18.9945 17.5858C18.4702 16.7611 18.1371 15.8123 17.9717 14.8492C17.9668 14.8229 17.9619 14.7966 17.9569 14.7696C17.8001 13.8983 17.8101 12.9055 17.9717 12.0361C17.9765 12.0082 17.9814 11.9803 17.9864 11.9515C18.1135 11.2366 18.3494 10.5464 18.6674 9.89572C18.6775 9.87494 18.6876 9.85417 18.698 9.83276C19.036 9.14474 19.5213 8.45029 20.1194 7.96937C20.0803 7.88478 20.0375 7.81497 19.9787 7.74315C19.9628 7.72368 19.947 7.70421 19.9307 7.68414C19.9137 7.66349 19.8968 7.64284 19.8793 7.62156C19.8434 7.57739 19.8075 7.53319 19.7716 7.48898C19.7537 7.46688 19.7358 7.44477 19.7173 7.422C19.6434 7.33021 19.5712 7.23713 19.4993 7.14379C19.3612 6.96493 19.2207 6.78809 19.0777 6.61318C18.9715 6.48279 18.8741 6.34982 18.787 6.20534C18.6841 6.13569 18.5723 6.17388 18.4557 6.1959C18.398 6.20748 18.3403 6.21907 18.2827 6.23124C17.7053 6.348 17.0614 6.34263 16.4894 6.1959C16.4669 6.19016 16.4445 6.18441 16.4213 6.17848C15.8866 6.03565 15.3588 5.80009 14.9164 5.46206C14.8764 5.43173 14.8764 5.43173 14.8356 5.40078C14.4318 5.08051 14.0481 4.69852 13.808 4.23473C13.7433 4.13735 13.7433 4.13735 13.6302 4.12189C13.587 4.11988 13.5438 4.11887 13.5005 4.11865C13.4768 4.11784 13.4532 4.11703 13.4288 4.11619C13.3505 4.11383 13.2723 4.11287 13.194 4.11213C13.1393 4.11123 13.0847 4.11032 13.03 4.1094C12.9154 4.10775 12.8007 4.10692 12.6861 4.10653C12.5398 4.10587 12.3937 4.1021 12.2475 4.09756C12.1345 4.09458 12.0216 4.09384 11.9086 4.09369C11.8547 4.09325 11.8009 4.092 11.7471 4.08991C11.3133 4.07436 11.1618 4.19331 10.9592 4.57559Z" fill="#EC7220"/>
</svg>
