<svg width="32" height="33" viewBox="0 0 32 33" fill="none" xmlns="http://www.w3.org/2000/svg">
<path d="M15.9818 21.0444L20.3037 25.9581C21.9049 27.7785 22.7056 28.6888 23.5436 28.4672C24.3816 28.2456 24.669 27.0477 25.2437 24.6517L28.4318 11.3612C29.317 7.67109 29.7596 5.82605 28.7757 4.916C27.792 4.00596 26.0866 4.683 22.6761 6.03709L6.85298 12.3193C4.12521 13.4023 2.76132 13.9439 2.67473 14.8744C2.66586 14.9696 2.66572 15.0655 2.67429 15.1607C2.75802 16.0916 4.12025 16.6377 6.8447 17.7297C8.07914 18.2245 8.69637 18.472 9.1389 18.9459C9.18866 18.9991 9.2365 19.0543 9.28234 19.1112C9.69008 19.6179 9.86409 20.2828 10.2121 21.6125L10.8633 24.1013C11.202 25.3953 11.3713 26.0424 11.8147 26.1307C12.2582 26.2188 12.6443 25.6823 13.4165 24.6092L15.9818 21.0444ZM15.9818 21.0444L15.5581 20.6028C15.0758 20.1001 14.8348 19.8489 14.8348 19.5367C14.8348 19.2244 15.0758 18.9731 15.5581 18.4704L20.3221 13.5055" stroke="#EC7220" stroke-linecap="round" stroke-linejoin="round"/>
</svg>
